%TF.GenerationSoftware,KiCad,Pcbnew,(5.1.6-rc1-6-g4e217d402)-1*%
%TF.CreationDate,2020-05-13T11:44:56-04:00*%
%TF.ProjectId,RF_Switch,52465f53-7769-4746-9368-2e6b69636164,rev?*%
%TF.SameCoordinates,Original*%
%TF.FileFunction,Copper,L1,Top*%
%TF.FilePolarity,Positive*%
%FSLAX46Y46*%
G04 Gerber Fmt 4.6, Leading zero omitted, Abs format (unit mm)*
G04 Created by KiCad (PCBNEW (5.1.6-rc1-6-g4e217d402)-1) date 2020-05-13 11:44:56*
%MOMM*%
%LPD*%
G01*
G04 APERTURE LIST*
%TA.AperFunction,SMDPad,CuDef*%
%ADD10R,1.500000X5.080000*%
%TD*%
%TA.AperFunction,SMDPad,CuDef*%
%ADD11R,1.520000X5.080000*%
%TD*%
%TA.AperFunction,SMDPad,CuDef*%
%ADD12R,1.000000X4.560000*%
%TD*%
%TA.AperFunction,SMDPad,CuDef*%
%ADD13R,1.000000X4.650000*%
%TD*%
%TA.AperFunction,ComponentPad*%
%ADD14R,1.500000X1.500000*%
%TD*%
%TA.AperFunction,ComponentPad*%
%ADD15C,1.500000*%
%TD*%
%TA.AperFunction,SMDPad,CuDef*%
%ADD16R,2.060000X2.060000*%
%TD*%
%TA.AperFunction,SMDPad,CuDef*%
%ADD17R,0.250000X0.810000*%
%TD*%
%TA.AperFunction,SMDPad,CuDef*%
%ADD18R,0.810000X0.250000*%
%TD*%
%TA.AperFunction,ViaPad*%
%ADD19C,0.800000*%
%TD*%
%TA.AperFunction,Conductor*%
%ADD20C,0.254000*%
%TD*%
%TA.AperFunction,Conductor*%
%ADD21C,0.250000*%
%TD*%
G04 APERTURE END LIST*
%TO.P,C2,2*%
%TO.N,GND*%
%TA.AperFunction,SMDPad,CuDef*%
G36*
G01*
X164362500Y-69756250D02*
X164362500Y-69243750D01*
G75*
G02*
X164581250Y-69025000I218750J0D01*
G01*
X165018750Y-69025000D01*
G75*
G02*
X165237500Y-69243750I0J-218750D01*
G01*
X165237500Y-69756250D01*
G75*
G02*
X165018750Y-69975000I-218750J0D01*
G01*
X164581250Y-69975000D01*
G75*
G02*
X164362500Y-69756250I0J218750D01*
G01*
G37*
%TD.AperFunction*%
%TO.P,C2,1*%
%TO.N,Net-(C1-Pad1)*%
%TA.AperFunction,SMDPad,CuDef*%
G36*
G01*
X162787500Y-69756250D02*
X162787500Y-69243750D01*
G75*
G02*
X163006250Y-69025000I218750J0D01*
G01*
X163443750Y-69025000D01*
G75*
G02*
X163662500Y-69243750I0J-218750D01*
G01*
X163662500Y-69756250D01*
G75*
G02*
X163443750Y-69975000I-218750J0D01*
G01*
X163006250Y-69975000D01*
G75*
G02*
X162787500Y-69756250I0J218750D01*
G01*
G37*
%TD.AperFunction*%
%TD*%
D10*
%TO.P,J3,2*%
%TO.N,GND*%
X162460000Y-85000000D03*
X167540000Y-85000000D03*
D11*
%TO.P,J3,1*%
%TO.N,Net-(J3-Pad1)*%
X165000000Y-85000000D03*
%TD*%
D12*
%TO.P,J4,2*%
%TO.N,GND*%
X172620000Y-62300000D03*
D13*
X167380000Y-62300000D03*
D12*
%TO.P,J4,1*%
%TO.N,Net-(J4-Pad1)*%
X170000000Y-62300000D03*
%TD*%
%TO.P,J1,2*%
%TO.N,GND*%
X162620000Y-62300000D03*
D13*
X157380000Y-62300000D03*
D12*
%TO.P,J1,1*%
%TO.N,Net-(J1-Pad1)*%
X160000000Y-62300000D03*
%TD*%
%TO.P,R2,2*%
%TO.N,Net-(R2-Pad2)*%
%TA.AperFunction,SMDPad,CuDef*%
G36*
G01*
X167162500Y-70643750D02*
X167162500Y-71156250D01*
G75*
G02*
X166943750Y-71375000I-218750J0D01*
G01*
X166506250Y-71375000D01*
G75*
G02*
X166287500Y-71156250I0J218750D01*
G01*
X166287500Y-70643750D01*
G75*
G02*
X166506250Y-70425000I218750J0D01*
G01*
X166943750Y-70425000D01*
G75*
G02*
X167162500Y-70643750I0J-218750D01*
G01*
G37*
%TD.AperFunction*%
%TO.P,R2,1*%
%TO.N,Net-(J2-Pad4)*%
%TA.AperFunction,SMDPad,CuDef*%
G36*
G01*
X168737500Y-70643750D02*
X168737500Y-71156250D01*
G75*
G02*
X168518750Y-71375000I-218750J0D01*
G01*
X168081250Y-71375000D01*
G75*
G02*
X167862500Y-71156250I0J218750D01*
G01*
X167862500Y-70643750D01*
G75*
G02*
X168081250Y-70425000I218750J0D01*
G01*
X168518750Y-70425000D01*
G75*
G02*
X168737500Y-70643750I0J-218750D01*
G01*
G37*
%TD.AperFunction*%
%TD*%
%TO.P,R1,2*%
%TO.N,Net-(R1-Pad2)*%
%TA.AperFunction,SMDPad,CuDef*%
G36*
G01*
X167160000Y-69113750D02*
X167160000Y-69626250D01*
G75*
G02*
X166941250Y-69845000I-218750J0D01*
G01*
X166503750Y-69845000D01*
G75*
G02*
X166285000Y-69626250I0J218750D01*
G01*
X166285000Y-69113750D01*
G75*
G02*
X166503750Y-68895000I218750J0D01*
G01*
X166941250Y-68895000D01*
G75*
G02*
X167160000Y-69113750I0J-218750D01*
G01*
G37*
%TD.AperFunction*%
%TO.P,R1,1*%
%TO.N,Net-(J2-Pad3)*%
%TA.AperFunction,SMDPad,CuDef*%
G36*
G01*
X168735000Y-69113750D02*
X168735000Y-69626250D01*
G75*
G02*
X168516250Y-69845000I-218750J0D01*
G01*
X168078750Y-69845000D01*
G75*
G02*
X167860000Y-69626250I0J218750D01*
G01*
X167860000Y-69113750D01*
G75*
G02*
X168078750Y-68895000I218750J0D01*
G01*
X168516250Y-68895000D01*
G75*
G02*
X168735000Y-69113750I0J-218750D01*
G01*
G37*
%TD.AperFunction*%
%TD*%
D14*
%TO.P,J5,1*%
%TO.N,GND*%
X173800000Y-80080000D03*
D15*
%TO.P,J5,2*%
%TO.N,Net-(C1-Pad1)*%
X173800000Y-77540000D03*
%TO.P,J5,3*%
%TO.N,Net-(J2-Pad3)*%
X173800000Y-75000000D03*
%TO.P,J5,4*%
%TO.N,Net-(J2-Pad4)*%
X173800000Y-72460000D03*
%TD*%
%TO.P,C1,2*%
%TO.N,GND*%
%TA.AperFunction,SMDPad,CuDef*%
G36*
G01*
X164362500Y-71356250D02*
X164362500Y-70843750D01*
G75*
G02*
X164581250Y-70625000I218750J0D01*
G01*
X165018750Y-70625000D01*
G75*
G02*
X165237500Y-70843750I0J-218750D01*
G01*
X165237500Y-71356250D01*
G75*
G02*
X165018750Y-71575000I-218750J0D01*
G01*
X164581250Y-71575000D01*
G75*
G02*
X164362500Y-71356250I0J218750D01*
G01*
G37*
%TD.AperFunction*%
%TO.P,C1,1*%
%TO.N,Net-(C1-Pad1)*%
%TA.AperFunction,SMDPad,CuDef*%
G36*
G01*
X162787500Y-71356250D02*
X162787500Y-70843750D01*
G75*
G02*
X163006250Y-70625000I218750J0D01*
G01*
X163443750Y-70625000D01*
G75*
G02*
X163662500Y-70843750I0J-218750D01*
G01*
X163662500Y-71356250D01*
G75*
G02*
X163443750Y-71575000I-218750J0D01*
G01*
X163006250Y-71575000D01*
G75*
G02*
X162787500Y-71356250I0J218750D01*
G01*
G37*
%TD.AperFunction*%
%TD*%
D16*
%TO.P,U1,0*%
%TO.N,GND*%
X165000000Y-75000000D03*
D17*
%TO.P,U1,6*%
X164000000Y-76845000D03*
%TO.P,U1,7*%
X164500000Y-76845000D03*
%TO.P,U1,8*%
%TO.N,Net-(J3-Pad1)*%
X165000000Y-76845000D03*
%TO.P,U1,9*%
%TO.N,GND*%
X165500000Y-76845000D03*
%TO.P,U1,10*%
X166000000Y-76845000D03*
%TO.P,U1,16*%
%TO.N,Net-(R2-Pad2)*%
X166000000Y-73155000D03*
%TO.P,U1,17*%
%TO.N,Net-(R1-Pad2)*%
X165500000Y-73155000D03*
%TO.P,U1,18*%
%TO.N,GND*%
X165000000Y-73155000D03*
%TO.P,U1,19*%
X164500000Y-73155000D03*
%TO.P,U1,20*%
%TO.N,Net-(C1-Pad1)*%
X164000000Y-73155000D03*
D18*
%TO.P,U1,11*%
%TO.N,GND*%
X166845000Y-76000000D03*
%TO.P,U1,12*%
X166845000Y-75500000D03*
%TO.P,U1,13*%
%TO.N,Net-(J4-Pad1)*%
X166845000Y-75000000D03*
%TO.P,U1,14*%
%TO.N,GND*%
X166845000Y-74500000D03*
%TO.P,U1,15*%
X166845000Y-74000000D03*
%TO.P,U1,5*%
X163155000Y-76000000D03*
%TO.P,U1,4*%
X163155000Y-75500000D03*
%TO.P,U1,3*%
%TO.N,Net-(J1-Pad1)*%
X163155000Y-75000000D03*
%TO.P,U1,2*%
%TO.N,GND*%
X163155000Y-74500000D03*
%TO.P,U1,1*%
X163155000Y-74000000D03*
%TD*%
D14*
%TO.P,J2,1*%
%TO.N,GND*%
X156200000Y-80000000D03*
D15*
%TO.P,J2,2*%
%TO.N,Net-(C1-Pad1)*%
X156200000Y-77460000D03*
%TO.P,J2,3*%
%TO.N,Net-(J2-Pad3)*%
X156200000Y-74920000D03*
%TO.P,J2,4*%
%TO.N,Net-(J2-Pad4)*%
X156200000Y-72380000D03*
%TD*%
D19*
%TO.N,GND*%
X158000000Y-65500000D03*
X163500000Y-65500000D03*
X166000000Y-65500000D03*
X173000000Y-65500000D03*
%TO.N,Net-(J2-Pad3)*%
X167800000Y-68300000D03*
%TO.N,Net-(J2-Pad4)*%
X169000000Y-71900000D03*
%TO.N,Net-(C1-Pad1)*%
X162200000Y-71100000D03*
%TD*%
D20*
%TO.N,Net-(J1-Pad1)*%
X160000000Y-62300000D02*
X160000000Y-74000000D01*
X160000000Y-74000000D02*
X161000000Y-75000000D01*
X161000000Y-75000000D02*
X163155000Y-75000000D01*
%TO.N,GND*%
X163155000Y-74000000D02*
X161970000Y-74000000D01*
X161970000Y-74000000D02*
X161730000Y-73760000D01*
X165000000Y-73155000D02*
X165000000Y-75000000D01*
X163155000Y-75500000D02*
X164500000Y-75500000D01*
X163155000Y-76000000D02*
X164000000Y-76000000D01*
X164000000Y-76000000D02*
X165000000Y-75000000D01*
X164000000Y-76845000D02*
X164000000Y-76000000D01*
X164500000Y-75500000D02*
X165000000Y-75000000D01*
X164500000Y-76845000D02*
X164500000Y-75500000D01*
X165500000Y-76845000D02*
X165500000Y-75500000D01*
X166000000Y-76845000D02*
X166000000Y-76000000D01*
X165500000Y-75500000D02*
X165000000Y-75000000D01*
X166845000Y-75500000D02*
X165500000Y-75500000D01*
X166000000Y-76000000D02*
X165000000Y-75000000D01*
X166845000Y-76000000D02*
X166000000Y-76000000D01*
X165500000Y-74500000D02*
X165000000Y-75000000D01*
X166845000Y-74500000D02*
X165500000Y-74500000D01*
X166000000Y-74000000D02*
X165000000Y-75000000D01*
X166845000Y-74000000D02*
X166000000Y-74000000D01*
X164500000Y-73155000D02*
X164500000Y-74500000D01*
X164000000Y-74000000D02*
X165000000Y-75000000D01*
X163155000Y-74000000D02*
X164000000Y-74000000D01*
X164500000Y-74500000D02*
X165000000Y-75000000D01*
X163155000Y-74500000D02*
X164500000Y-74500000D01*
%TO.N,Net-(J2-Pad3)*%
X167800000Y-68300000D02*
X167800000Y-69000000D01*
D21*
X168170000Y-69370000D02*
X167800000Y-69000000D01*
X168297500Y-69370000D02*
X168170000Y-69370000D01*
D20*
%TO.N,Net-(J2-Pad4)*%
X169000000Y-71600000D02*
X168300000Y-70900000D01*
X169000000Y-71900000D02*
X169000000Y-71600000D01*
%TO.N,Net-(J3-Pad1)*%
X165000000Y-85000000D02*
X165000000Y-76845000D01*
%TO.N,Net-(J4-Pad1)*%
X170000000Y-62300000D02*
X170000000Y-74000000D01*
X170000000Y-74000000D02*
X169000000Y-75000000D01*
X167400000Y-75000000D02*
X166845000Y-75000000D01*
X169000000Y-75000000D02*
X167400000Y-75000000D01*
%TO.N,Net-(C1-Pad1)*%
X164000000Y-71875000D02*
X163225000Y-71100000D01*
X164000000Y-73155000D02*
X164000000Y-71875000D01*
X163225000Y-71100000D02*
X163225000Y-69500000D01*
X162200000Y-71100000D02*
X163225000Y-71100000D01*
%TO.N,Net-(R1-Pad2)*%
X165800000Y-71346824D02*
X165800000Y-70425000D01*
X165500000Y-73155000D02*
X165500000Y-71646824D01*
X165500000Y-71646824D02*
X165800000Y-71346824D01*
D21*
X165800000Y-70292500D02*
X166722500Y-69370000D01*
X165800000Y-70425000D02*
X165800000Y-70292500D01*
D20*
%TO.N,Net-(R2-Pad2)*%
X166725000Y-71063891D02*
X166725000Y-70900000D01*
X166000000Y-71788891D02*
X166725000Y-71063891D01*
X166000000Y-73155000D02*
X166000000Y-71788891D01*
%TD*%
%TO.N,GND*%
G36*
X171485000Y-62014250D02*
G01*
X171643750Y-62173000D01*
X172493000Y-62173000D01*
X172493000Y-62153000D01*
X172747000Y-62153000D01*
X172747000Y-62173000D01*
X173596250Y-62173000D01*
X173755000Y-62014250D01*
X173756367Y-61127000D01*
X173873000Y-61127000D01*
X173873000Y-71329000D01*
X173688606Y-71329000D01*
X173470100Y-71372464D01*
X173264271Y-71457721D01*
X173079030Y-71581495D01*
X172921495Y-71739030D01*
X172797721Y-71924271D01*
X172712464Y-72130100D01*
X172669000Y-72348606D01*
X172669000Y-72571394D01*
X172712464Y-72789900D01*
X172797721Y-72995729D01*
X172921495Y-73180970D01*
X173079030Y-73338505D01*
X173264271Y-73462279D01*
X173470100Y-73547536D01*
X173688606Y-73591000D01*
X173873000Y-73591000D01*
X173873000Y-73869000D01*
X173688606Y-73869000D01*
X173470100Y-73912464D01*
X173264271Y-73997721D01*
X173079030Y-74121495D01*
X172921495Y-74279030D01*
X172797721Y-74464271D01*
X172712464Y-74670100D01*
X172669000Y-74888606D01*
X172669000Y-75111394D01*
X172712464Y-75329900D01*
X172797721Y-75535729D01*
X172921495Y-75720970D01*
X173079030Y-75878505D01*
X173264271Y-76002279D01*
X173470100Y-76087536D01*
X173688606Y-76131000D01*
X173873000Y-76131000D01*
X173873000Y-76409000D01*
X173688606Y-76409000D01*
X173470100Y-76452464D01*
X173264271Y-76537721D01*
X173079030Y-76661495D01*
X172921495Y-76819030D01*
X172797721Y-77004271D01*
X172712464Y-77210100D01*
X172669000Y-77428606D01*
X172669000Y-77651394D01*
X172712464Y-77869900D01*
X172797721Y-78075729D01*
X172921495Y-78260970D01*
X173079030Y-78418505D01*
X173264271Y-78542279D01*
X173470100Y-78627536D01*
X173688606Y-78671000D01*
X173873000Y-78671000D01*
X173873000Y-86873000D01*
X168927163Y-86873000D01*
X168925000Y-85285750D01*
X168766250Y-85127000D01*
X167667000Y-85127000D01*
X167667000Y-85147000D01*
X167413000Y-85147000D01*
X167413000Y-85127000D01*
X166313750Y-85127000D01*
X166155000Y-85285750D01*
X166152837Y-86873000D01*
X166142843Y-86873000D01*
X166142843Y-82460000D01*
X166151928Y-82460000D01*
X166155000Y-84714250D01*
X166313750Y-84873000D01*
X167413000Y-84873000D01*
X167413000Y-81983750D01*
X167667000Y-81983750D01*
X167667000Y-84873000D01*
X168766250Y-84873000D01*
X168925000Y-84714250D01*
X168928072Y-82460000D01*
X168915812Y-82335518D01*
X168879502Y-82215820D01*
X168820537Y-82105506D01*
X168741185Y-82008815D01*
X168644494Y-81929463D01*
X168534180Y-81870498D01*
X168414482Y-81834188D01*
X168290000Y-81821928D01*
X167825750Y-81825000D01*
X167667000Y-81983750D01*
X167413000Y-81983750D01*
X167254250Y-81825000D01*
X166790000Y-81821928D01*
X166665518Y-81834188D01*
X166545820Y-81870498D01*
X166435506Y-81929463D01*
X166338815Y-82008815D01*
X166259463Y-82105506D01*
X166200498Y-82215820D01*
X166164188Y-82335518D01*
X166151928Y-82460000D01*
X166142843Y-82460000D01*
X166135487Y-82385311D01*
X166113701Y-82313492D01*
X166078322Y-82247304D01*
X166030711Y-82189289D01*
X165972696Y-82141678D01*
X165906508Y-82106299D01*
X165834689Y-82084513D01*
X165760000Y-82077157D01*
X165508000Y-82077157D01*
X165508000Y-80830000D01*
X172411928Y-80830000D01*
X172424188Y-80954482D01*
X172460498Y-81074180D01*
X172519463Y-81184494D01*
X172598815Y-81281185D01*
X172695506Y-81360537D01*
X172805820Y-81419502D01*
X172925518Y-81455812D01*
X173050000Y-81468072D01*
X173514250Y-81465000D01*
X173673000Y-81306250D01*
X173673000Y-80207000D01*
X172573750Y-80207000D01*
X172415000Y-80365750D01*
X172411928Y-80830000D01*
X165508000Y-80830000D01*
X165508000Y-79330000D01*
X172411928Y-79330000D01*
X172415000Y-79794250D01*
X172573750Y-79953000D01*
X173673000Y-79953000D01*
X173673000Y-78853750D01*
X173514250Y-78695000D01*
X173050000Y-78691928D01*
X172925518Y-78704188D01*
X172805820Y-78740498D01*
X172695506Y-78799463D01*
X172598815Y-78878815D01*
X172519463Y-78975506D01*
X172460498Y-79085820D01*
X172424188Y-79205518D01*
X172411928Y-79330000D01*
X165508000Y-79330000D01*
X165508000Y-77885000D01*
X165627002Y-77885000D01*
X165627002Y-77853252D01*
X165658750Y-77885000D01*
X165750000Y-77874372D01*
X165841250Y-77885000D01*
X165905249Y-77821001D01*
X165991785Y-77772115D01*
X166020852Y-77747102D01*
X166158750Y-77885000D01*
X166264060Y-77872734D01*
X166382878Y-77833639D01*
X166491785Y-77772115D01*
X166586597Y-77690527D01*
X166663670Y-77592009D01*
X166720043Y-77480348D01*
X166753548Y-77359835D01*
X166762898Y-77235101D01*
X166760000Y-77130750D01*
X166601250Y-76972000D01*
X165875000Y-76972000D01*
X165875000Y-76718000D01*
X166205605Y-76718000D01*
X166209652Y-76720043D01*
X166330165Y-76753548D01*
X166454899Y-76762898D01*
X166559250Y-76760000D01*
X166760000Y-76559250D01*
X166762898Y-76454899D01*
X166753548Y-76330165D01*
X166720043Y-76209652D01*
X166718000Y-76205605D01*
X166718000Y-75875000D01*
X166972000Y-75875000D01*
X166972000Y-76601250D01*
X167130750Y-76760000D01*
X167235101Y-76762898D01*
X167359835Y-76753548D01*
X167480348Y-76720043D01*
X167592009Y-76663670D01*
X167690527Y-76586597D01*
X167772115Y-76491785D01*
X167833639Y-76382878D01*
X167872734Y-76264060D01*
X167885000Y-76158750D01*
X167747102Y-76020852D01*
X167772115Y-75991785D01*
X167821001Y-75905249D01*
X167885000Y-75841250D01*
X167874372Y-75750000D01*
X167885000Y-75658750D01*
X167853252Y-75627002D01*
X167885000Y-75627002D01*
X167885000Y-75508000D01*
X168975056Y-75508000D01*
X169000000Y-75510457D01*
X169024944Y-75508000D01*
X169024947Y-75508000D01*
X169099585Y-75500649D01*
X169195343Y-75471601D01*
X169283595Y-75424429D01*
X169360948Y-75360948D01*
X169376855Y-75341565D01*
X170341565Y-74376855D01*
X170360948Y-74360948D01*
X170424429Y-74283595D01*
X170471601Y-74195343D01*
X170500649Y-74099585D01*
X170508000Y-74024947D01*
X170508000Y-74024944D01*
X170510457Y-74000000D01*
X170508000Y-73975056D01*
X170508000Y-64962055D01*
X170574689Y-64955487D01*
X170646508Y-64933701D01*
X170712696Y-64898322D01*
X170770711Y-64850711D01*
X170818322Y-64792696D01*
X170853701Y-64726508D01*
X170875487Y-64654689D01*
X170882843Y-64580000D01*
X171481928Y-64580000D01*
X171494188Y-64704482D01*
X171530498Y-64824180D01*
X171589463Y-64934494D01*
X171668815Y-65031185D01*
X171765506Y-65110537D01*
X171875820Y-65169502D01*
X171995518Y-65205812D01*
X172120000Y-65218072D01*
X172334250Y-65215000D01*
X172493000Y-65056250D01*
X172493000Y-62427000D01*
X172747000Y-62427000D01*
X172747000Y-65056250D01*
X172905750Y-65215000D01*
X173120000Y-65218072D01*
X173244482Y-65205812D01*
X173364180Y-65169502D01*
X173474494Y-65110537D01*
X173571185Y-65031185D01*
X173650537Y-64934494D01*
X173709502Y-64824180D01*
X173745812Y-64704482D01*
X173758072Y-64580000D01*
X173755000Y-62585750D01*
X173596250Y-62427000D01*
X172747000Y-62427000D01*
X172493000Y-62427000D01*
X171643750Y-62427000D01*
X171485000Y-62585750D01*
X171481928Y-64580000D01*
X170882843Y-64580000D01*
X170882843Y-61127000D01*
X171483633Y-61127000D01*
X171485000Y-62014250D01*
G37*
X171485000Y-62014250D02*
X171643750Y-62173000D01*
X172493000Y-62173000D01*
X172493000Y-62153000D01*
X172747000Y-62153000D01*
X172747000Y-62173000D01*
X173596250Y-62173000D01*
X173755000Y-62014250D01*
X173756367Y-61127000D01*
X173873000Y-61127000D01*
X173873000Y-71329000D01*
X173688606Y-71329000D01*
X173470100Y-71372464D01*
X173264271Y-71457721D01*
X173079030Y-71581495D01*
X172921495Y-71739030D01*
X172797721Y-71924271D01*
X172712464Y-72130100D01*
X172669000Y-72348606D01*
X172669000Y-72571394D01*
X172712464Y-72789900D01*
X172797721Y-72995729D01*
X172921495Y-73180970D01*
X173079030Y-73338505D01*
X173264271Y-73462279D01*
X173470100Y-73547536D01*
X173688606Y-73591000D01*
X173873000Y-73591000D01*
X173873000Y-73869000D01*
X173688606Y-73869000D01*
X173470100Y-73912464D01*
X173264271Y-73997721D01*
X173079030Y-74121495D01*
X172921495Y-74279030D01*
X172797721Y-74464271D01*
X172712464Y-74670100D01*
X172669000Y-74888606D01*
X172669000Y-75111394D01*
X172712464Y-75329900D01*
X172797721Y-75535729D01*
X172921495Y-75720970D01*
X173079030Y-75878505D01*
X173264271Y-76002279D01*
X173470100Y-76087536D01*
X173688606Y-76131000D01*
X173873000Y-76131000D01*
X173873000Y-76409000D01*
X173688606Y-76409000D01*
X173470100Y-76452464D01*
X173264271Y-76537721D01*
X173079030Y-76661495D01*
X172921495Y-76819030D01*
X172797721Y-77004271D01*
X172712464Y-77210100D01*
X172669000Y-77428606D01*
X172669000Y-77651394D01*
X172712464Y-77869900D01*
X172797721Y-78075729D01*
X172921495Y-78260970D01*
X173079030Y-78418505D01*
X173264271Y-78542279D01*
X173470100Y-78627536D01*
X173688606Y-78671000D01*
X173873000Y-78671000D01*
X173873000Y-86873000D01*
X168927163Y-86873000D01*
X168925000Y-85285750D01*
X168766250Y-85127000D01*
X167667000Y-85127000D01*
X167667000Y-85147000D01*
X167413000Y-85147000D01*
X167413000Y-85127000D01*
X166313750Y-85127000D01*
X166155000Y-85285750D01*
X166152837Y-86873000D01*
X166142843Y-86873000D01*
X166142843Y-82460000D01*
X166151928Y-82460000D01*
X166155000Y-84714250D01*
X166313750Y-84873000D01*
X167413000Y-84873000D01*
X167413000Y-81983750D01*
X167667000Y-81983750D01*
X167667000Y-84873000D01*
X168766250Y-84873000D01*
X168925000Y-84714250D01*
X168928072Y-82460000D01*
X168915812Y-82335518D01*
X168879502Y-82215820D01*
X168820537Y-82105506D01*
X168741185Y-82008815D01*
X168644494Y-81929463D01*
X168534180Y-81870498D01*
X168414482Y-81834188D01*
X168290000Y-81821928D01*
X167825750Y-81825000D01*
X167667000Y-81983750D01*
X167413000Y-81983750D01*
X167254250Y-81825000D01*
X166790000Y-81821928D01*
X166665518Y-81834188D01*
X166545820Y-81870498D01*
X166435506Y-81929463D01*
X166338815Y-82008815D01*
X166259463Y-82105506D01*
X166200498Y-82215820D01*
X166164188Y-82335518D01*
X166151928Y-82460000D01*
X166142843Y-82460000D01*
X166135487Y-82385311D01*
X166113701Y-82313492D01*
X166078322Y-82247304D01*
X166030711Y-82189289D01*
X165972696Y-82141678D01*
X165906508Y-82106299D01*
X165834689Y-82084513D01*
X165760000Y-82077157D01*
X165508000Y-82077157D01*
X165508000Y-80830000D01*
X172411928Y-80830000D01*
X172424188Y-80954482D01*
X172460498Y-81074180D01*
X172519463Y-81184494D01*
X172598815Y-81281185D01*
X172695506Y-81360537D01*
X172805820Y-81419502D01*
X172925518Y-81455812D01*
X173050000Y-81468072D01*
X173514250Y-81465000D01*
X173673000Y-81306250D01*
X173673000Y-80207000D01*
X172573750Y-80207000D01*
X172415000Y-80365750D01*
X172411928Y-80830000D01*
X165508000Y-80830000D01*
X165508000Y-79330000D01*
X172411928Y-79330000D01*
X172415000Y-79794250D01*
X172573750Y-79953000D01*
X173673000Y-79953000D01*
X173673000Y-78853750D01*
X173514250Y-78695000D01*
X173050000Y-78691928D01*
X172925518Y-78704188D01*
X172805820Y-78740498D01*
X172695506Y-78799463D01*
X172598815Y-78878815D01*
X172519463Y-78975506D01*
X172460498Y-79085820D01*
X172424188Y-79205518D01*
X172411928Y-79330000D01*
X165508000Y-79330000D01*
X165508000Y-77885000D01*
X165627002Y-77885000D01*
X165627002Y-77853252D01*
X165658750Y-77885000D01*
X165750000Y-77874372D01*
X165841250Y-77885000D01*
X165905249Y-77821001D01*
X165991785Y-77772115D01*
X166020852Y-77747102D01*
X166158750Y-77885000D01*
X166264060Y-77872734D01*
X166382878Y-77833639D01*
X166491785Y-77772115D01*
X166586597Y-77690527D01*
X166663670Y-77592009D01*
X166720043Y-77480348D01*
X166753548Y-77359835D01*
X166762898Y-77235101D01*
X166760000Y-77130750D01*
X166601250Y-76972000D01*
X165875000Y-76972000D01*
X165875000Y-76718000D01*
X166205605Y-76718000D01*
X166209652Y-76720043D01*
X166330165Y-76753548D01*
X166454899Y-76762898D01*
X166559250Y-76760000D01*
X166760000Y-76559250D01*
X166762898Y-76454899D01*
X166753548Y-76330165D01*
X166720043Y-76209652D01*
X166718000Y-76205605D01*
X166718000Y-75875000D01*
X166972000Y-75875000D01*
X166972000Y-76601250D01*
X167130750Y-76760000D01*
X167235101Y-76762898D01*
X167359835Y-76753548D01*
X167480348Y-76720043D01*
X167592009Y-76663670D01*
X167690527Y-76586597D01*
X167772115Y-76491785D01*
X167833639Y-76382878D01*
X167872734Y-76264060D01*
X167885000Y-76158750D01*
X167747102Y-76020852D01*
X167772115Y-75991785D01*
X167821001Y-75905249D01*
X167885000Y-75841250D01*
X167874372Y-75750000D01*
X167885000Y-75658750D01*
X167853252Y-75627002D01*
X167885000Y-75627002D01*
X167885000Y-75508000D01*
X168975056Y-75508000D01*
X169000000Y-75510457D01*
X169024944Y-75508000D01*
X169024947Y-75508000D01*
X169099585Y-75500649D01*
X169195343Y-75471601D01*
X169283595Y-75424429D01*
X169360948Y-75360948D01*
X169376855Y-75341565D01*
X170341565Y-74376855D01*
X170360948Y-74360948D01*
X170424429Y-74283595D01*
X170471601Y-74195343D01*
X170500649Y-74099585D01*
X170508000Y-74024947D01*
X170508000Y-74024944D01*
X170510457Y-74000000D01*
X170508000Y-73975056D01*
X170508000Y-64962055D01*
X170574689Y-64955487D01*
X170646508Y-64933701D01*
X170712696Y-64898322D01*
X170770711Y-64850711D01*
X170818322Y-64792696D01*
X170853701Y-64726508D01*
X170875487Y-64654689D01*
X170882843Y-64580000D01*
X171481928Y-64580000D01*
X171494188Y-64704482D01*
X171530498Y-64824180D01*
X171589463Y-64934494D01*
X171668815Y-65031185D01*
X171765506Y-65110537D01*
X171875820Y-65169502D01*
X171995518Y-65205812D01*
X172120000Y-65218072D01*
X172334250Y-65215000D01*
X172493000Y-65056250D01*
X172493000Y-62427000D01*
X172747000Y-62427000D01*
X172747000Y-65056250D01*
X172905750Y-65215000D01*
X173120000Y-65218072D01*
X173244482Y-65205812D01*
X173364180Y-65169502D01*
X173474494Y-65110537D01*
X173571185Y-65031185D01*
X173650537Y-64934494D01*
X173709502Y-64824180D01*
X173745812Y-64704482D01*
X173758072Y-64580000D01*
X173755000Y-62585750D01*
X173596250Y-62427000D01*
X172747000Y-62427000D01*
X172493000Y-62427000D01*
X171643750Y-62427000D01*
X171485000Y-62585750D01*
X171481928Y-64580000D01*
X170882843Y-64580000D01*
X170882843Y-61127000D01*
X171483633Y-61127000D01*
X171485000Y-62014250D01*
G36*
X156245000Y-62014250D02*
G01*
X156403750Y-62173000D01*
X157253000Y-62173000D01*
X157253000Y-62153000D01*
X157507000Y-62153000D01*
X157507000Y-62173000D01*
X158356250Y-62173000D01*
X158515000Y-62014250D01*
X158516337Y-61127000D01*
X159117157Y-61127000D01*
X159117157Y-64580000D01*
X159124513Y-64654689D01*
X159146299Y-64726508D01*
X159181678Y-64792696D01*
X159229289Y-64850711D01*
X159287304Y-64898322D01*
X159353492Y-64933701D01*
X159425311Y-64955487D01*
X159492000Y-64962055D01*
X159492001Y-73975046D01*
X159489543Y-74000000D01*
X159497631Y-74082115D01*
X159499352Y-74099585D01*
X159512716Y-74143639D01*
X159528400Y-74195343D01*
X159575571Y-74283595D01*
X159623150Y-74341570D01*
X159639053Y-74360948D01*
X159658430Y-74376850D01*
X160623145Y-75341565D01*
X160639052Y-75360948D01*
X160716405Y-75424429D01*
X160804657Y-75471601D01*
X160900415Y-75500649D01*
X160975053Y-75508000D01*
X160975056Y-75508000D01*
X161000000Y-75510457D01*
X161024944Y-75508000D01*
X162115000Y-75508000D01*
X162115000Y-75627002D01*
X162146748Y-75627002D01*
X162115000Y-75658750D01*
X162125628Y-75750000D01*
X162115000Y-75841250D01*
X162178999Y-75905249D01*
X162227885Y-75991785D01*
X162252898Y-76020852D01*
X162115000Y-76158750D01*
X162127266Y-76264060D01*
X162166361Y-76382878D01*
X162227885Y-76491785D01*
X162309473Y-76586597D01*
X162407991Y-76663670D01*
X162519652Y-76720043D01*
X162640165Y-76753548D01*
X162764899Y-76762898D01*
X162869250Y-76760000D01*
X163028000Y-76601250D01*
X163028000Y-75875000D01*
X163282000Y-75875000D01*
X163282000Y-76205605D01*
X163279957Y-76209652D01*
X163246452Y-76330165D01*
X163237102Y-76454899D01*
X163240000Y-76559250D01*
X163440750Y-76760000D01*
X163545101Y-76762898D01*
X163669835Y-76753548D01*
X163790348Y-76720043D01*
X163794395Y-76718000D01*
X164125000Y-76718000D01*
X164125000Y-76972000D01*
X163398750Y-76972000D01*
X163240000Y-77130750D01*
X163237102Y-77235101D01*
X163246452Y-77359835D01*
X163279957Y-77480348D01*
X163336330Y-77592009D01*
X163413403Y-77690527D01*
X163508215Y-77772115D01*
X163617122Y-77833639D01*
X163735940Y-77872734D01*
X163841250Y-77885000D01*
X163979148Y-77747102D01*
X164008215Y-77772115D01*
X164094751Y-77821001D01*
X164158750Y-77885000D01*
X164250000Y-77874372D01*
X164341250Y-77885000D01*
X164372998Y-77853252D01*
X164372998Y-77885000D01*
X164492001Y-77885000D01*
X164492000Y-82077157D01*
X164240000Y-82077157D01*
X164165311Y-82084513D01*
X164093492Y-82106299D01*
X164027304Y-82141678D01*
X163969289Y-82189289D01*
X163921678Y-82247304D01*
X163886299Y-82313492D01*
X163864513Y-82385311D01*
X163857157Y-82460000D01*
X163857157Y-86873000D01*
X163847163Y-86873000D01*
X163845000Y-85285750D01*
X163686250Y-85127000D01*
X162587000Y-85127000D01*
X162587000Y-85147000D01*
X162333000Y-85147000D01*
X162333000Y-85127000D01*
X161233750Y-85127000D01*
X161075000Y-85285750D01*
X161072837Y-86873000D01*
X156127000Y-86873000D01*
X156127000Y-82460000D01*
X161071928Y-82460000D01*
X161075000Y-84714250D01*
X161233750Y-84873000D01*
X162333000Y-84873000D01*
X162333000Y-81983750D01*
X162587000Y-81983750D01*
X162587000Y-84873000D01*
X163686250Y-84873000D01*
X163845000Y-84714250D01*
X163848072Y-82460000D01*
X163835812Y-82335518D01*
X163799502Y-82215820D01*
X163740537Y-82105506D01*
X163661185Y-82008815D01*
X163564494Y-81929463D01*
X163454180Y-81870498D01*
X163334482Y-81834188D01*
X163210000Y-81821928D01*
X162745750Y-81825000D01*
X162587000Y-81983750D01*
X162333000Y-81983750D01*
X162174250Y-81825000D01*
X161710000Y-81821928D01*
X161585518Y-81834188D01*
X161465820Y-81870498D01*
X161355506Y-81929463D01*
X161258815Y-82008815D01*
X161179463Y-82105506D01*
X161120498Y-82215820D01*
X161084188Y-82335518D01*
X161071928Y-82460000D01*
X156127000Y-82460000D01*
X156127000Y-80127000D01*
X156327000Y-80127000D01*
X156327000Y-81226250D01*
X156485750Y-81385000D01*
X156950000Y-81388072D01*
X157074482Y-81375812D01*
X157194180Y-81339502D01*
X157304494Y-81280537D01*
X157401185Y-81201185D01*
X157480537Y-81104494D01*
X157539502Y-80994180D01*
X157575812Y-80874482D01*
X157588072Y-80750000D01*
X157585000Y-80285750D01*
X157426250Y-80127000D01*
X156327000Y-80127000D01*
X156127000Y-80127000D01*
X156127000Y-78773750D01*
X156327000Y-78773750D01*
X156327000Y-79873000D01*
X157426250Y-79873000D01*
X157585000Y-79714250D01*
X157588072Y-79250000D01*
X157575812Y-79125518D01*
X157539502Y-79005820D01*
X157480537Y-78895506D01*
X157401185Y-78798815D01*
X157304494Y-78719463D01*
X157194180Y-78660498D01*
X157074482Y-78624188D01*
X156950000Y-78611928D01*
X156485750Y-78615000D01*
X156327000Y-78773750D01*
X156127000Y-78773750D01*
X156127000Y-78591000D01*
X156311394Y-78591000D01*
X156529900Y-78547536D01*
X156735729Y-78462279D01*
X156920970Y-78338505D01*
X157078505Y-78180970D01*
X157202279Y-77995729D01*
X157287536Y-77789900D01*
X157331000Y-77571394D01*
X157331000Y-77348606D01*
X157287536Y-77130100D01*
X157202279Y-76924271D01*
X157078505Y-76739030D01*
X156920970Y-76581495D01*
X156735729Y-76457721D01*
X156529900Y-76372464D01*
X156311394Y-76329000D01*
X156127000Y-76329000D01*
X156127000Y-76051000D01*
X156311394Y-76051000D01*
X156529900Y-76007536D01*
X156735729Y-75922279D01*
X156920970Y-75798505D01*
X157078505Y-75640970D01*
X157202279Y-75455729D01*
X157287536Y-75249900D01*
X157331000Y-75031394D01*
X157331000Y-74808606D01*
X157287536Y-74590100D01*
X157202279Y-74384271D01*
X157078505Y-74199030D01*
X156920970Y-74041495D01*
X156735729Y-73917721D01*
X156529900Y-73832464D01*
X156311394Y-73789000D01*
X156127000Y-73789000D01*
X156127000Y-73511000D01*
X156311394Y-73511000D01*
X156529900Y-73467536D01*
X156735729Y-73382279D01*
X156920970Y-73258505D01*
X157078505Y-73100970D01*
X157202279Y-72915729D01*
X157287536Y-72709900D01*
X157331000Y-72491394D01*
X157331000Y-72268606D01*
X157287536Y-72050100D01*
X157202279Y-71844271D01*
X157078505Y-71659030D01*
X156920970Y-71501495D01*
X156735729Y-71377721D01*
X156529900Y-71292464D01*
X156311394Y-71249000D01*
X156127000Y-71249000D01*
X156127000Y-64625000D01*
X156241928Y-64625000D01*
X156254188Y-64749482D01*
X156290498Y-64869180D01*
X156349463Y-64979494D01*
X156428815Y-65076185D01*
X156525506Y-65155537D01*
X156635820Y-65214502D01*
X156755518Y-65250812D01*
X156880000Y-65263072D01*
X157094250Y-65260000D01*
X157253000Y-65101250D01*
X157253000Y-62427000D01*
X157507000Y-62427000D01*
X157507000Y-65101250D01*
X157665750Y-65260000D01*
X157880000Y-65263072D01*
X158004482Y-65250812D01*
X158124180Y-65214502D01*
X158234494Y-65155537D01*
X158331185Y-65076185D01*
X158410537Y-64979494D01*
X158469502Y-64869180D01*
X158505812Y-64749482D01*
X158518072Y-64625000D01*
X158515000Y-62585750D01*
X158356250Y-62427000D01*
X157507000Y-62427000D01*
X157253000Y-62427000D01*
X156403750Y-62427000D01*
X156245000Y-62585750D01*
X156241928Y-64625000D01*
X156127000Y-64625000D01*
X156127000Y-61127000D01*
X156243663Y-61127000D01*
X156245000Y-62014250D01*
G37*
X156245000Y-62014250D02*
X156403750Y-62173000D01*
X157253000Y-62173000D01*
X157253000Y-62153000D01*
X157507000Y-62153000D01*
X157507000Y-62173000D01*
X158356250Y-62173000D01*
X158515000Y-62014250D01*
X158516337Y-61127000D01*
X159117157Y-61127000D01*
X159117157Y-64580000D01*
X159124513Y-64654689D01*
X159146299Y-64726508D01*
X159181678Y-64792696D01*
X159229289Y-64850711D01*
X159287304Y-64898322D01*
X159353492Y-64933701D01*
X159425311Y-64955487D01*
X159492000Y-64962055D01*
X159492001Y-73975046D01*
X159489543Y-74000000D01*
X159497631Y-74082115D01*
X159499352Y-74099585D01*
X159512716Y-74143639D01*
X159528400Y-74195343D01*
X159575571Y-74283595D01*
X159623150Y-74341570D01*
X159639053Y-74360948D01*
X159658430Y-74376850D01*
X160623145Y-75341565D01*
X160639052Y-75360948D01*
X160716405Y-75424429D01*
X160804657Y-75471601D01*
X160900415Y-75500649D01*
X160975053Y-75508000D01*
X160975056Y-75508000D01*
X161000000Y-75510457D01*
X161024944Y-75508000D01*
X162115000Y-75508000D01*
X162115000Y-75627002D01*
X162146748Y-75627002D01*
X162115000Y-75658750D01*
X162125628Y-75750000D01*
X162115000Y-75841250D01*
X162178999Y-75905249D01*
X162227885Y-75991785D01*
X162252898Y-76020852D01*
X162115000Y-76158750D01*
X162127266Y-76264060D01*
X162166361Y-76382878D01*
X162227885Y-76491785D01*
X162309473Y-76586597D01*
X162407991Y-76663670D01*
X162519652Y-76720043D01*
X162640165Y-76753548D01*
X162764899Y-76762898D01*
X162869250Y-76760000D01*
X163028000Y-76601250D01*
X163028000Y-75875000D01*
X163282000Y-75875000D01*
X163282000Y-76205605D01*
X163279957Y-76209652D01*
X163246452Y-76330165D01*
X163237102Y-76454899D01*
X163240000Y-76559250D01*
X163440750Y-76760000D01*
X163545101Y-76762898D01*
X163669835Y-76753548D01*
X163790348Y-76720043D01*
X163794395Y-76718000D01*
X164125000Y-76718000D01*
X164125000Y-76972000D01*
X163398750Y-76972000D01*
X163240000Y-77130750D01*
X163237102Y-77235101D01*
X163246452Y-77359835D01*
X163279957Y-77480348D01*
X163336330Y-77592009D01*
X163413403Y-77690527D01*
X163508215Y-77772115D01*
X163617122Y-77833639D01*
X163735940Y-77872734D01*
X163841250Y-77885000D01*
X163979148Y-77747102D01*
X164008215Y-77772115D01*
X164094751Y-77821001D01*
X164158750Y-77885000D01*
X164250000Y-77874372D01*
X164341250Y-77885000D01*
X164372998Y-77853252D01*
X164372998Y-77885000D01*
X164492001Y-77885000D01*
X164492000Y-82077157D01*
X164240000Y-82077157D01*
X164165311Y-82084513D01*
X164093492Y-82106299D01*
X164027304Y-82141678D01*
X163969289Y-82189289D01*
X163921678Y-82247304D01*
X163886299Y-82313492D01*
X163864513Y-82385311D01*
X163857157Y-82460000D01*
X163857157Y-86873000D01*
X163847163Y-86873000D01*
X163845000Y-85285750D01*
X163686250Y-85127000D01*
X162587000Y-85127000D01*
X162587000Y-85147000D01*
X162333000Y-85147000D01*
X162333000Y-85127000D01*
X161233750Y-85127000D01*
X161075000Y-85285750D01*
X161072837Y-86873000D01*
X156127000Y-86873000D01*
X156127000Y-82460000D01*
X161071928Y-82460000D01*
X161075000Y-84714250D01*
X161233750Y-84873000D01*
X162333000Y-84873000D01*
X162333000Y-81983750D01*
X162587000Y-81983750D01*
X162587000Y-84873000D01*
X163686250Y-84873000D01*
X163845000Y-84714250D01*
X163848072Y-82460000D01*
X163835812Y-82335518D01*
X163799502Y-82215820D01*
X163740537Y-82105506D01*
X163661185Y-82008815D01*
X163564494Y-81929463D01*
X163454180Y-81870498D01*
X163334482Y-81834188D01*
X163210000Y-81821928D01*
X162745750Y-81825000D01*
X162587000Y-81983750D01*
X162333000Y-81983750D01*
X162174250Y-81825000D01*
X161710000Y-81821928D01*
X161585518Y-81834188D01*
X161465820Y-81870498D01*
X161355506Y-81929463D01*
X161258815Y-82008815D01*
X161179463Y-82105506D01*
X161120498Y-82215820D01*
X161084188Y-82335518D01*
X161071928Y-82460000D01*
X156127000Y-82460000D01*
X156127000Y-80127000D01*
X156327000Y-80127000D01*
X156327000Y-81226250D01*
X156485750Y-81385000D01*
X156950000Y-81388072D01*
X157074482Y-81375812D01*
X157194180Y-81339502D01*
X157304494Y-81280537D01*
X157401185Y-81201185D01*
X157480537Y-81104494D01*
X157539502Y-80994180D01*
X157575812Y-80874482D01*
X157588072Y-80750000D01*
X157585000Y-80285750D01*
X157426250Y-80127000D01*
X156327000Y-80127000D01*
X156127000Y-80127000D01*
X156127000Y-78773750D01*
X156327000Y-78773750D01*
X156327000Y-79873000D01*
X157426250Y-79873000D01*
X157585000Y-79714250D01*
X157588072Y-79250000D01*
X157575812Y-79125518D01*
X157539502Y-79005820D01*
X157480537Y-78895506D01*
X157401185Y-78798815D01*
X157304494Y-78719463D01*
X157194180Y-78660498D01*
X157074482Y-78624188D01*
X156950000Y-78611928D01*
X156485750Y-78615000D01*
X156327000Y-78773750D01*
X156127000Y-78773750D01*
X156127000Y-78591000D01*
X156311394Y-78591000D01*
X156529900Y-78547536D01*
X156735729Y-78462279D01*
X156920970Y-78338505D01*
X157078505Y-78180970D01*
X157202279Y-77995729D01*
X157287536Y-77789900D01*
X157331000Y-77571394D01*
X157331000Y-77348606D01*
X157287536Y-77130100D01*
X157202279Y-76924271D01*
X157078505Y-76739030D01*
X156920970Y-76581495D01*
X156735729Y-76457721D01*
X156529900Y-76372464D01*
X156311394Y-76329000D01*
X156127000Y-76329000D01*
X156127000Y-76051000D01*
X156311394Y-76051000D01*
X156529900Y-76007536D01*
X156735729Y-75922279D01*
X156920970Y-75798505D01*
X157078505Y-75640970D01*
X157202279Y-75455729D01*
X157287536Y-75249900D01*
X157331000Y-75031394D01*
X157331000Y-74808606D01*
X157287536Y-74590100D01*
X157202279Y-74384271D01*
X157078505Y-74199030D01*
X156920970Y-74041495D01*
X156735729Y-73917721D01*
X156529900Y-73832464D01*
X156311394Y-73789000D01*
X156127000Y-73789000D01*
X156127000Y-73511000D01*
X156311394Y-73511000D01*
X156529900Y-73467536D01*
X156735729Y-73382279D01*
X156920970Y-73258505D01*
X157078505Y-73100970D01*
X157202279Y-72915729D01*
X157287536Y-72709900D01*
X157331000Y-72491394D01*
X157331000Y-72268606D01*
X157287536Y-72050100D01*
X157202279Y-71844271D01*
X157078505Y-71659030D01*
X156920970Y-71501495D01*
X156735729Y-71377721D01*
X156529900Y-71292464D01*
X156311394Y-71249000D01*
X156127000Y-71249000D01*
X156127000Y-64625000D01*
X156241928Y-64625000D01*
X156254188Y-64749482D01*
X156290498Y-64869180D01*
X156349463Y-64979494D01*
X156428815Y-65076185D01*
X156525506Y-65155537D01*
X156635820Y-65214502D01*
X156755518Y-65250812D01*
X156880000Y-65263072D01*
X157094250Y-65260000D01*
X157253000Y-65101250D01*
X157253000Y-62427000D01*
X157507000Y-62427000D01*
X157507000Y-65101250D01*
X157665750Y-65260000D01*
X157880000Y-65263072D01*
X158004482Y-65250812D01*
X158124180Y-65214502D01*
X158234494Y-65155537D01*
X158331185Y-65076185D01*
X158410537Y-64979494D01*
X158469502Y-64869180D01*
X158505812Y-64749482D01*
X158518072Y-64625000D01*
X158515000Y-62585750D01*
X158356250Y-62427000D01*
X157507000Y-62427000D01*
X157253000Y-62427000D01*
X156403750Y-62427000D01*
X156245000Y-62585750D01*
X156241928Y-64625000D01*
X156127000Y-64625000D01*
X156127000Y-61127000D01*
X156243663Y-61127000D01*
X156245000Y-62014250D01*
G36*
X165127000Y-74873000D02*
G01*
X165147000Y-74873000D01*
X165147000Y-75127000D01*
X165127000Y-75127000D01*
X165127000Y-75147000D01*
X164873000Y-75147000D01*
X164873000Y-75127000D01*
X164853000Y-75127000D01*
X164853000Y-74873000D01*
X164873000Y-74873000D01*
X164873000Y-74853000D01*
X165127000Y-74853000D01*
X165127000Y-74873000D01*
G37*
X165127000Y-74873000D02*
X165147000Y-74873000D01*
X165147000Y-75127000D01*
X165127000Y-75127000D01*
X165127000Y-75147000D01*
X164873000Y-75147000D01*
X164873000Y-75127000D01*
X164853000Y-75127000D01*
X164853000Y-74873000D01*
X164873000Y-74873000D01*
X164873000Y-74853000D01*
X165127000Y-74853000D01*
X165127000Y-74873000D01*
G36*
X167525451Y-71386470D02*
G01*
X167581044Y-71490477D01*
X167655860Y-71581640D01*
X167747023Y-71656456D01*
X167851030Y-71712049D01*
X167963885Y-71746284D01*
X168081250Y-71757843D01*
X168231976Y-71757843D01*
X168219000Y-71823078D01*
X168219000Y-71976922D01*
X168249013Y-72127809D01*
X168307887Y-72269942D01*
X168393358Y-72397859D01*
X168502141Y-72506642D01*
X168630058Y-72592113D01*
X168772191Y-72650987D01*
X168923078Y-72681000D01*
X169076922Y-72681000D01*
X169227809Y-72650987D01*
X169369942Y-72592113D01*
X169492001Y-72510556D01*
X169492001Y-73789579D01*
X168789580Y-74492000D01*
X167885000Y-74492000D01*
X167885000Y-74372998D01*
X167853252Y-74372998D01*
X167885000Y-74341250D01*
X167874372Y-74250000D01*
X167885000Y-74158750D01*
X167821001Y-74094751D01*
X167772115Y-74008215D01*
X167747102Y-73979148D01*
X167885000Y-73841250D01*
X167872734Y-73735940D01*
X167833639Y-73617122D01*
X167772115Y-73508215D01*
X167690527Y-73413403D01*
X167592009Y-73336330D01*
X167480348Y-73279957D01*
X167359835Y-73246452D01*
X167235101Y-73237102D01*
X167130750Y-73240000D01*
X166972000Y-73398750D01*
X166972000Y-74125000D01*
X166718000Y-74125000D01*
X166718000Y-73398750D01*
X166559250Y-73240000D01*
X166507843Y-73238572D01*
X166507843Y-73181541D01*
X166508000Y-73179947D01*
X166508000Y-71999311D01*
X166749468Y-71757843D01*
X166943750Y-71757843D01*
X167061115Y-71746284D01*
X167173970Y-71712049D01*
X167277977Y-71656456D01*
X167369140Y-71581640D01*
X167443956Y-71490477D01*
X167499549Y-71386470D01*
X167512500Y-71343777D01*
X167525451Y-71386470D01*
G37*
X167525451Y-71386470D02*
X167581044Y-71490477D01*
X167655860Y-71581640D01*
X167747023Y-71656456D01*
X167851030Y-71712049D01*
X167963885Y-71746284D01*
X168081250Y-71757843D01*
X168231976Y-71757843D01*
X168219000Y-71823078D01*
X168219000Y-71976922D01*
X168249013Y-72127809D01*
X168307887Y-72269942D01*
X168393358Y-72397859D01*
X168502141Y-72506642D01*
X168630058Y-72592113D01*
X168772191Y-72650987D01*
X168923078Y-72681000D01*
X169076922Y-72681000D01*
X169227809Y-72650987D01*
X169369942Y-72592113D01*
X169492001Y-72510556D01*
X169492001Y-73789579D01*
X168789580Y-74492000D01*
X167885000Y-74492000D01*
X167885000Y-74372998D01*
X167853252Y-74372998D01*
X167885000Y-74341250D01*
X167874372Y-74250000D01*
X167885000Y-74158750D01*
X167821001Y-74094751D01*
X167772115Y-74008215D01*
X167747102Y-73979148D01*
X167885000Y-73841250D01*
X167872734Y-73735940D01*
X167833639Y-73617122D01*
X167772115Y-73508215D01*
X167690527Y-73413403D01*
X167592009Y-73336330D01*
X167480348Y-73279957D01*
X167359835Y-73246452D01*
X167235101Y-73237102D01*
X167130750Y-73240000D01*
X166972000Y-73398750D01*
X166972000Y-74125000D01*
X166718000Y-74125000D01*
X166718000Y-73398750D01*
X166559250Y-73240000D01*
X166507843Y-73238572D01*
X166507843Y-73181541D01*
X166508000Y-73179947D01*
X166508000Y-71999311D01*
X166749468Y-71757843D01*
X166943750Y-71757843D01*
X167061115Y-71746284D01*
X167173970Y-71712049D01*
X167277977Y-71656456D01*
X167369140Y-71581640D01*
X167443956Y-71490477D01*
X167499549Y-71386470D01*
X167512500Y-71343777D01*
X167525451Y-71386470D01*
G36*
X161485000Y-62014250D02*
G01*
X161643750Y-62173000D01*
X162493000Y-62173000D01*
X162493000Y-62153000D01*
X162747000Y-62153000D01*
X162747000Y-62173000D01*
X163596250Y-62173000D01*
X163755000Y-62014250D01*
X163756367Y-61127000D01*
X166243663Y-61127000D01*
X166245000Y-62014250D01*
X166403750Y-62173000D01*
X167253000Y-62173000D01*
X167253000Y-62153000D01*
X167507000Y-62153000D01*
X167507000Y-62173000D01*
X168356250Y-62173000D01*
X168515000Y-62014250D01*
X168516337Y-61127000D01*
X169117157Y-61127000D01*
X169117157Y-64580000D01*
X169124513Y-64654689D01*
X169146299Y-64726508D01*
X169181678Y-64792696D01*
X169229289Y-64850711D01*
X169287304Y-64898322D01*
X169353492Y-64933701D01*
X169425311Y-64955487D01*
X169492000Y-64962055D01*
X169492001Y-71289444D01*
X169369942Y-71207887D01*
X169295453Y-71177033D01*
X169120343Y-71001922D01*
X169120343Y-70643750D01*
X169108784Y-70526385D01*
X169074549Y-70413530D01*
X169018956Y-70309523D01*
X168944140Y-70218360D01*
X168852977Y-70143544D01*
X168835742Y-70134332D01*
X168850477Y-70126456D01*
X168941640Y-70051640D01*
X169016456Y-69960477D01*
X169072049Y-69856470D01*
X169106284Y-69743615D01*
X169117843Y-69626250D01*
X169117843Y-69113750D01*
X169106284Y-68996385D01*
X169072049Y-68883530D01*
X169016456Y-68779523D01*
X168941640Y-68688360D01*
X168850477Y-68613544D01*
X168746470Y-68557951D01*
X168633615Y-68523716D01*
X168553373Y-68515813D01*
X168581000Y-68376922D01*
X168581000Y-68223078D01*
X168550987Y-68072191D01*
X168492113Y-67930058D01*
X168406642Y-67802141D01*
X168297859Y-67693358D01*
X168169942Y-67607887D01*
X168027809Y-67549013D01*
X167876922Y-67519000D01*
X167723078Y-67519000D01*
X167572191Y-67549013D01*
X167430058Y-67607887D01*
X167302141Y-67693358D01*
X167193358Y-67802141D01*
X167107887Y-67930058D01*
X167049013Y-68072191D01*
X167019000Y-68223078D01*
X167019000Y-68376922D01*
X167047991Y-68522670D01*
X166941250Y-68512157D01*
X166503750Y-68512157D01*
X166386385Y-68523716D01*
X166273530Y-68557951D01*
X166169523Y-68613544D01*
X166078360Y-68688360D01*
X166003544Y-68779523D01*
X165947951Y-68883530D01*
X165913716Y-68996385D01*
X165902157Y-69113750D01*
X165902157Y-69474752D01*
X165731829Y-69645079D01*
X165713750Y-69627000D01*
X164927000Y-69627000D01*
X164927000Y-70973000D01*
X164947000Y-70973000D01*
X164947000Y-71227000D01*
X164927000Y-71227000D01*
X164927000Y-71247000D01*
X164673000Y-71247000D01*
X164673000Y-71227000D01*
X164653000Y-71227000D01*
X164653000Y-70973000D01*
X164673000Y-70973000D01*
X164673000Y-69627000D01*
X164653000Y-69627000D01*
X164653000Y-69373000D01*
X164673000Y-69373000D01*
X164673000Y-68548750D01*
X164927000Y-68548750D01*
X164927000Y-69373000D01*
X165713750Y-69373000D01*
X165872500Y-69214250D01*
X165875572Y-69025000D01*
X165863312Y-68900518D01*
X165827002Y-68780820D01*
X165768037Y-68670506D01*
X165688685Y-68573815D01*
X165591994Y-68494463D01*
X165481680Y-68435498D01*
X165361982Y-68399188D01*
X165237500Y-68386928D01*
X165085750Y-68390000D01*
X164927000Y-68548750D01*
X164673000Y-68548750D01*
X164514250Y-68390000D01*
X164362500Y-68386928D01*
X164238018Y-68399188D01*
X164118320Y-68435498D01*
X164008006Y-68494463D01*
X163911315Y-68573815D01*
X163831963Y-68670506D01*
X163788366Y-68752070D01*
X163777977Y-68743544D01*
X163673970Y-68687951D01*
X163561115Y-68653716D01*
X163443750Y-68642157D01*
X163006250Y-68642157D01*
X162888885Y-68653716D01*
X162776030Y-68687951D01*
X162672023Y-68743544D01*
X162580860Y-68818360D01*
X162506044Y-68909523D01*
X162450451Y-69013530D01*
X162416216Y-69126385D01*
X162404657Y-69243750D01*
X162404657Y-69756250D01*
X162416216Y-69873615D01*
X162450451Y-69986470D01*
X162506044Y-70090477D01*
X162580860Y-70181640D01*
X162672023Y-70256456D01*
X162717001Y-70280497D01*
X162717000Y-70319503D01*
X162672023Y-70343544D01*
X162582994Y-70416608D01*
X162569942Y-70407887D01*
X162427809Y-70349013D01*
X162276922Y-70319000D01*
X162123078Y-70319000D01*
X161972191Y-70349013D01*
X161830058Y-70407887D01*
X161702141Y-70493358D01*
X161593358Y-70602141D01*
X161507887Y-70730058D01*
X161449013Y-70872191D01*
X161419000Y-71023078D01*
X161419000Y-71176922D01*
X161449013Y-71327809D01*
X161507887Y-71469942D01*
X161593358Y-71597859D01*
X161702141Y-71706642D01*
X161830058Y-71792113D01*
X161972191Y-71850987D01*
X162123078Y-71881000D01*
X162276922Y-71881000D01*
X162427809Y-71850987D01*
X162569942Y-71792113D01*
X162582994Y-71783392D01*
X162672023Y-71856456D01*
X162776030Y-71912049D01*
X162888885Y-71946284D01*
X163006250Y-71957843D01*
X163364423Y-71957843D01*
X163492001Y-72085421D01*
X163492000Y-73179946D01*
X163492157Y-73181540D01*
X163492157Y-73238572D01*
X163440750Y-73240000D01*
X163282000Y-73398750D01*
X163282000Y-74125000D01*
X163028000Y-74125000D01*
X163028000Y-73398750D01*
X162869250Y-73240000D01*
X162764899Y-73237102D01*
X162640165Y-73246452D01*
X162519652Y-73279957D01*
X162407991Y-73336330D01*
X162309473Y-73413403D01*
X162227885Y-73508215D01*
X162166361Y-73617122D01*
X162127266Y-73735940D01*
X162115000Y-73841250D01*
X162252898Y-73979148D01*
X162227885Y-74008215D01*
X162178999Y-74094751D01*
X162115000Y-74158750D01*
X162125628Y-74250000D01*
X162115000Y-74341250D01*
X162146748Y-74372998D01*
X162115000Y-74372998D01*
X162115000Y-74492000D01*
X161210420Y-74492000D01*
X160508000Y-73789580D01*
X160508000Y-64962055D01*
X160574689Y-64955487D01*
X160646508Y-64933701D01*
X160712696Y-64898322D01*
X160770711Y-64850711D01*
X160818322Y-64792696D01*
X160853701Y-64726508D01*
X160875487Y-64654689D01*
X160882843Y-64580000D01*
X161481928Y-64580000D01*
X161494188Y-64704482D01*
X161530498Y-64824180D01*
X161589463Y-64934494D01*
X161668815Y-65031185D01*
X161765506Y-65110537D01*
X161875820Y-65169502D01*
X161995518Y-65205812D01*
X162120000Y-65218072D01*
X162334250Y-65215000D01*
X162493000Y-65056250D01*
X162493000Y-62427000D01*
X162747000Y-62427000D01*
X162747000Y-65056250D01*
X162905750Y-65215000D01*
X163120000Y-65218072D01*
X163244482Y-65205812D01*
X163364180Y-65169502D01*
X163474494Y-65110537D01*
X163571185Y-65031185D01*
X163650537Y-64934494D01*
X163709502Y-64824180D01*
X163745812Y-64704482D01*
X163753640Y-64625000D01*
X166241928Y-64625000D01*
X166254188Y-64749482D01*
X166290498Y-64869180D01*
X166349463Y-64979494D01*
X166428815Y-65076185D01*
X166525506Y-65155537D01*
X166635820Y-65214502D01*
X166755518Y-65250812D01*
X166880000Y-65263072D01*
X167094250Y-65260000D01*
X167253000Y-65101250D01*
X167253000Y-62427000D01*
X167507000Y-62427000D01*
X167507000Y-65101250D01*
X167665750Y-65260000D01*
X167880000Y-65263072D01*
X168004482Y-65250812D01*
X168124180Y-65214502D01*
X168234494Y-65155537D01*
X168331185Y-65076185D01*
X168410537Y-64979494D01*
X168469502Y-64869180D01*
X168505812Y-64749482D01*
X168518072Y-64625000D01*
X168515000Y-62585750D01*
X168356250Y-62427000D01*
X167507000Y-62427000D01*
X167253000Y-62427000D01*
X166403750Y-62427000D01*
X166245000Y-62585750D01*
X166241928Y-64625000D01*
X163753640Y-64625000D01*
X163758072Y-64580000D01*
X163755000Y-62585750D01*
X163596250Y-62427000D01*
X162747000Y-62427000D01*
X162493000Y-62427000D01*
X161643750Y-62427000D01*
X161485000Y-62585750D01*
X161481928Y-64580000D01*
X160882843Y-64580000D01*
X160882843Y-61127000D01*
X161483633Y-61127000D01*
X161485000Y-62014250D01*
G37*
X161485000Y-62014250D02*
X161643750Y-62173000D01*
X162493000Y-62173000D01*
X162493000Y-62153000D01*
X162747000Y-62153000D01*
X162747000Y-62173000D01*
X163596250Y-62173000D01*
X163755000Y-62014250D01*
X163756367Y-61127000D01*
X166243663Y-61127000D01*
X166245000Y-62014250D01*
X166403750Y-62173000D01*
X167253000Y-62173000D01*
X167253000Y-62153000D01*
X167507000Y-62153000D01*
X167507000Y-62173000D01*
X168356250Y-62173000D01*
X168515000Y-62014250D01*
X168516337Y-61127000D01*
X169117157Y-61127000D01*
X169117157Y-64580000D01*
X169124513Y-64654689D01*
X169146299Y-64726508D01*
X169181678Y-64792696D01*
X169229289Y-64850711D01*
X169287304Y-64898322D01*
X169353492Y-64933701D01*
X169425311Y-64955487D01*
X169492000Y-64962055D01*
X169492001Y-71289444D01*
X169369942Y-71207887D01*
X169295453Y-71177033D01*
X169120343Y-71001922D01*
X169120343Y-70643750D01*
X169108784Y-70526385D01*
X169074549Y-70413530D01*
X169018956Y-70309523D01*
X168944140Y-70218360D01*
X168852977Y-70143544D01*
X168835742Y-70134332D01*
X168850477Y-70126456D01*
X168941640Y-70051640D01*
X169016456Y-69960477D01*
X169072049Y-69856470D01*
X169106284Y-69743615D01*
X169117843Y-69626250D01*
X169117843Y-69113750D01*
X169106284Y-68996385D01*
X169072049Y-68883530D01*
X169016456Y-68779523D01*
X168941640Y-68688360D01*
X168850477Y-68613544D01*
X168746470Y-68557951D01*
X168633615Y-68523716D01*
X168553373Y-68515813D01*
X168581000Y-68376922D01*
X168581000Y-68223078D01*
X168550987Y-68072191D01*
X168492113Y-67930058D01*
X168406642Y-67802141D01*
X168297859Y-67693358D01*
X168169942Y-67607887D01*
X168027809Y-67549013D01*
X167876922Y-67519000D01*
X167723078Y-67519000D01*
X167572191Y-67549013D01*
X167430058Y-67607887D01*
X167302141Y-67693358D01*
X167193358Y-67802141D01*
X167107887Y-67930058D01*
X167049013Y-68072191D01*
X167019000Y-68223078D01*
X167019000Y-68376922D01*
X167047991Y-68522670D01*
X166941250Y-68512157D01*
X166503750Y-68512157D01*
X166386385Y-68523716D01*
X166273530Y-68557951D01*
X166169523Y-68613544D01*
X166078360Y-68688360D01*
X166003544Y-68779523D01*
X165947951Y-68883530D01*
X165913716Y-68996385D01*
X165902157Y-69113750D01*
X165902157Y-69474752D01*
X165731829Y-69645079D01*
X165713750Y-69627000D01*
X164927000Y-69627000D01*
X164927000Y-70973000D01*
X164947000Y-70973000D01*
X164947000Y-71227000D01*
X164927000Y-71227000D01*
X164927000Y-71247000D01*
X164673000Y-71247000D01*
X164673000Y-71227000D01*
X164653000Y-71227000D01*
X164653000Y-70973000D01*
X164673000Y-70973000D01*
X164673000Y-69627000D01*
X164653000Y-69627000D01*
X164653000Y-69373000D01*
X164673000Y-69373000D01*
X164673000Y-68548750D01*
X164927000Y-68548750D01*
X164927000Y-69373000D01*
X165713750Y-69373000D01*
X165872500Y-69214250D01*
X165875572Y-69025000D01*
X165863312Y-68900518D01*
X165827002Y-68780820D01*
X165768037Y-68670506D01*
X165688685Y-68573815D01*
X165591994Y-68494463D01*
X165481680Y-68435498D01*
X165361982Y-68399188D01*
X165237500Y-68386928D01*
X165085750Y-68390000D01*
X164927000Y-68548750D01*
X164673000Y-68548750D01*
X164514250Y-68390000D01*
X164362500Y-68386928D01*
X164238018Y-68399188D01*
X164118320Y-68435498D01*
X164008006Y-68494463D01*
X163911315Y-68573815D01*
X163831963Y-68670506D01*
X163788366Y-68752070D01*
X163777977Y-68743544D01*
X163673970Y-68687951D01*
X163561115Y-68653716D01*
X163443750Y-68642157D01*
X163006250Y-68642157D01*
X162888885Y-68653716D01*
X162776030Y-68687951D01*
X162672023Y-68743544D01*
X162580860Y-68818360D01*
X162506044Y-68909523D01*
X162450451Y-69013530D01*
X162416216Y-69126385D01*
X162404657Y-69243750D01*
X162404657Y-69756250D01*
X162416216Y-69873615D01*
X162450451Y-69986470D01*
X162506044Y-70090477D01*
X162580860Y-70181640D01*
X162672023Y-70256456D01*
X162717001Y-70280497D01*
X162717000Y-70319503D01*
X162672023Y-70343544D01*
X162582994Y-70416608D01*
X162569942Y-70407887D01*
X162427809Y-70349013D01*
X162276922Y-70319000D01*
X162123078Y-70319000D01*
X161972191Y-70349013D01*
X161830058Y-70407887D01*
X161702141Y-70493358D01*
X161593358Y-70602141D01*
X161507887Y-70730058D01*
X161449013Y-70872191D01*
X161419000Y-71023078D01*
X161419000Y-71176922D01*
X161449013Y-71327809D01*
X161507887Y-71469942D01*
X161593358Y-71597859D01*
X161702141Y-71706642D01*
X161830058Y-71792113D01*
X161972191Y-71850987D01*
X162123078Y-71881000D01*
X162276922Y-71881000D01*
X162427809Y-71850987D01*
X162569942Y-71792113D01*
X162582994Y-71783392D01*
X162672023Y-71856456D01*
X162776030Y-71912049D01*
X162888885Y-71946284D01*
X163006250Y-71957843D01*
X163364423Y-71957843D01*
X163492001Y-72085421D01*
X163492000Y-73179946D01*
X163492157Y-73181540D01*
X163492157Y-73238572D01*
X163440750Y-73240000D01*
X163282000Y-73398750D01*
X163282000Y-74125000D01*
X163028000Y-74125000D01*
X163028000Y-73398750D01*
X162869250Y-73240000D01*
X162764899Y-73237102D01*
X162640165Y-73246452D01*
X162519652Y-73279957D01*
X162407991Y-73336330D01*
X162309473Y-73413403D01*
X162227885Y-73508215D01*
X162166361Y-73617122D01*
X162127266Y-73735940D01*
X162115000Y-73841250D01*
X162252898Y-73979148D01*
X162227885Y-74008215D01*
X162178999Y-74094751D01*
X162115000Y-74158750D01*
X162125628Y-74250000D01*
X162115000Y-74341250D01*
X162146748Y-74372998D01*
X162115000Y-74372998D01*
X162115000Y-74492000D01*
X161210420Y-74492000D01*
X160508000Y-73789580D01*
X160508000Y-64962055D01*
X160574689Y-64955487D01*
X160646508Y-64933701D01*
X160712696Y-64898322D01*
X160770711Y-64850711D01*
X160818322Y-64792696D01*
X160853701Y-64726508D01*
X160875487Y-64654689D01*
X160882843Y-64580000D01*
X161481928Y-64580000D01*
X161494188Y-64704482D01*
X161530498Y-64824180D01*
X161589463Y-64934494D01*
X161668815Y-65031185D01*
X161765506Y-65110537D01*
X161875820Y-65169502D01*
X161995518Y-65205812D01*
X162120000Y-65218072D01*
X162334250Y-65215000D01*
X162493000Y-65056250D01*
X162493000Y-62427000D01*
X162747000Y-62427000D01*
X162747000Y-65056250D01*
X162905750Y-65215000D01*
X163120000Y-65218072D01*
X163244482Y-65205812D01*
X163364180Y-65169502D01*
X163474494Y-65110537D01*
X163571185Y-65031185D01*
X163650537Y-64934494D01*
X163709502Y-64824180D01*
X163745812Y-64704482D01*
X163753640Y-64625000D01*
X166241928Y-64625000D01*
X166254188Y-64749482D01*
X166290498Y-64869180D01*
X166349463Y-64979494D01*
X166428815Y-65076185D01*
X166525506Y-65155537D01*
X166635820Y-65214502D01*
X166755518Y-65250812D01*
X166880000Y-65263072D01*
X167094250Y-65260000D01*
X167253000Y-65101250D01*
X167253000Y-62427000D01*
X167507000Y-62427000D01*
X167507000Y-65101250D01*
X167665750Y-65260000D01*
X167880000Y-65263072D01*
X168004482Y-65250812D01*
X168124180Y-65214502D01*
X168234494Y-65155537D01*
X168331185Y-65076185D01*
X168410537Y-64979494D01*
X168469502Y-64869180D01*
X168505812Y-64749482D01*
X168518072Y-64625000D01*
X168515000Y-62585750D01*
X168356250Y-62427000D01*
X167507000Y-62427000D01*
X167253000Y-62427000D01*
X166403750Y-62427000D01*
X166245000Y-62585750D01*
X166241928Y-64625000D01*
X163753640Y-64625000D01*
X163758072Y-64580000D01*
X163755000Y-62585750D01*
X163596250Y-62427000D01*
X162747000Y-62427000D01*
X162493000Y-62427000D01*
X161643750Y-62427000D01*
X161485000Y-62585750D01*
X161481928Y-64580000D01*
X160882843Y-64580000D01*
X160882843Y-61127000D01*
X161483633Y-61127000D01*
X161485000Y-62014250D01*
G36*
X164672998Y-72116659D02*
G01*
X164658750Y-72115000D01*
X164627002Y-72146748D01*
X164627002Y-72115000D01*
X164609250Y-72115000D01*
X164672998Y-72051252D01*
X164672998Y-72116659D01*
G37*
X164672998Y-72116659D02*
X164658750Y-72115000D01*
X164627002Y-72146748D01*
X164627002Y-72115000D01*
X164609250Y-72115000D01*
X164672998Y-72051252D01*
X164672998Y-72116659D01*
G36*
X164990750Y-72115000D02*
G01*
X164927002Y-72115000D01*
X164927002Y-72051252D01*
X164990750Y-72115000D01*
G37*
X164990750Y-72115000D02*
X164927002Y-72115000D01*
X164927002Y-72051252D01*
X164990750Y-72115000D01*
G36*
X163816198Y-70300000D02*
G01*
X163788366Y-70352070D01*
X163777977Y-70343544D01*
X163733000Y-70319503D01*
X163733000Y-70280497D01*
X163777977Y-70256456D01*
X163788366Y-70247930D01*
X163816198Y-70300000D01*
G37*
X163816198Y-70300000D02*
X163788366Y-70352070D01*
X163777977Y-70343544D01*
X163733000Y-70319503D01*
X163733000Y-70280497D01*
X163777977Y-70256456D01*
X163788366Y-70247930D01*
X163816198Y-70300000D01*
G36*
X162404657Y-69243750D02*
G01*
X162404657Y-69756250D01*
X162416216Y-69873615D01*
X162450451Y-69986470D01*
X162506044Y-70090477D01*
X162580860Y-70181640D01*
X162672023Y-70256456D01*
X162717001Y-70280497D01*
X162717000Y-70319503D01*
X162672023Y-70343544D01*
X162582994Y-70416608D01*
X162569942Y-70407887D01*
X162427809Y-70349013D01*
X162276922Y-70319000D01*
X162123078Y-70319000D01*
X161972191Y-70349013D01*
X161830058Y-70407887D01*
X161702141Y-70493358D01*
X161593358Y-70602141D01*
X161507887Y-70730058D01*
X161449013Y-70872191D01*
X161419000Y-71023078D01*
X161419000Y-71176922D01*
X161449013Y-71327809D01*
X161507887Y-71469942D01*
X161593358Y-71597859D01*
X161702141Y-71706642D01*
X161830058Y-71792113D01*
X161972191Y-71850987D01*
X162123078Y-71881000D01*
X162276922Y-71881000D01*
X162427809Y-71850987D01*
X162569942Y-71792113D01*
X162582994Y-71783392D01*
X162672023Y-71856456D01*
X162776030Y-71912049D01*
X162888885Y-71946284D01*
X163006250Y-71957843D01*
X163364423Y-71957843D01*
X163492001Y-72085421D01*
X163492000Y-73179946D01*
X163492157Y-73181540D01*
X163492157Y-73560000D01*
X163499513Y-73634689D01*
X163521299Y-73706508D01*
X163556678Y-73772696D01*
X163604289Y-73830711D01*
X163662304Y-73878322D01*
X163728492Y-73913701D01*
X163800311Y-73935487D01*
X163875000Y-73942843D01*
X164125000Y-73942843D01*
X164199689Y-73935487D01*
X164271508Y-73913701D01*
X164337696Y-73878322D01*
X164395711Y-73830711D01*
X164443322Y-73772696D01*
X164478701Y-73706508D01*
X164500487Y-73634689D01*
X164507843Y-73560000D01*
X164507843Y-73181541D01*
X164508000Y-73179947D01*
X164508000Y-71899944D01*
X164510457Y-71875000D01*
X164505343Y-71823078D01*
X164500649Y-71775415D01*
X164471601Y-71679657D01*
X164424429Y-71591405D01*
X164360948Y-71514052D01*
X164341565Y-71498145D01*
X164045343Y-71201923D01*
X164045343Y-70843750D01*
X164033784Y-70726385D01*
X163999549Y-70613530D01*
X163943956Y-70509523D01*
X163869140Y-70418360D01*
X163777977Y-70343544D01*
X163733000Y-70319503D01*
X163733000Y-70280497D01*
X163777977Y-70256456D01*
X163869140Y-70181640D01*
X163943956Y-70090477D01*
X163999549Y-69986470D01*
X164033784Y-69873615D01*
X164045343Y-69756250D01*
X164045343Y-69243750D01*
X164033845Y-69127000D01*
X165902157Y-69127000D01*
X165902157Y-69474752D01*
X165459780Y-69917129D01*
X165440474Y-69932973D01*
X165377241Y-70010021D01*
X165330255Y-70097925D01*
X165301322Y-70193307D01*
X165294000Y-70267646D01*
X165294000Y-70267654D01*
X165291553Y-70292500D01*
X165294000Y-70317346D01*
X165294000Y-70379756D01*
X165292001Y-70400053D01*
X165292000Y-71136404D01*
X165158430Y-71269974D01*
X165139053Y-71285876D01*
X165123151Y-71305253D01*
X165123150Y-71305254D01*
X165075571Y-71363229D01*
X165031112Y-71446408D01*
X165028400Y-71451481D01*
X165000891Y-71542168D01*
X164999352Y-71547240D01*
X164989543Y-71646824D01*
X164992001Y-71671778D01*
X164992000Y-73179946D01*
X164992157Y-73181540D01*
X164992157Y-73560000D01*
X164999513Y-73634689D01*
X165021299Y-73706508D01*
X165056678Y-73772696D01*
X165104289Y-73830711D01*
X165162304Y-73878322D01*
X165228492Y-73913701D01*
X165300311Y-73935487D01*
X165375000Y-73942843D01*
X165625000Y-73942843D01*
X165699689Y-73935487D01*
X165750000Y-73920225D01*
X165800311Y-73935487D01*
X165875000Y-73942843D01*
X166125000Y-73942843D01*
X166199689Y-73935487D01*
X166271508Y-73913701D01*
X166337696Y-73878322D01*
X166395711Y-73830711D01*
X166443322Y-73772696D01*
X166478701Y-73706508D01*
X166500487Y-73634689D01*
X166507843Y-73560000D01*
X166507843Y-73181541D01*
X166508000Y-73179947D01*
X166508000Y-71999311D01*
X166749468Y-71757843D01*
X166943750Y-71757843D01*
X167061115Y-71746284D01*
X167173970Y-71712049D01*
X167277977Y-71656456D01*
X167369140Y-71581640D01*
X167443956Y-71490477D01*
X167499549Y-71386470D01*
X167512500Y-71343777D01*
X167525451Y-71386470D01*
X167581044Y-71490477D01*
X167655860Y-71581640D01*
X167747023Y-71656456D01*
X167851030Y-71712049D01*
X167963885Y-71746284D01*
X168081250Y-71757843D01*
X168231976Y-71757843D01*
X168219000Y-71823078D01*
X168219000Y-71976922D01*
X168249013Y-72127809D01*
X168307887Y-72269942D01*
X168393358Y-72397859D01*
X168502141Y-72506642D01*
X168630058Y-72592113D01*
X168772191Y-72650987D01*
X168923078Y-72681000D01*
X169076922Y-72681000D01*
X169227809Y-72650987D01*
X169369942Y-72592113D01*
X169492001Y-72510556D01*
X169492001Y-73789579D01*
X168789580Y-74492000D01*
X166820053Y-74492000D01*
X166818459Y-74492157D01*
X166440000Y-74492157D01*
X166365311Y-74499513D01*
X166293492Y-74521299D01*
X166227304Y-74556678D01*
X166169289Y-74604289D01*
X166121678Y-74662304D01*
X166086299Y-74728492D01*
X166064513Y-74800311D01*
X166057157Y-74875000D01*
X166057157Y-75125000D01*
X166064513Y-75199689D01*
X166086299Y-75271508D01*
X166121678Y-75337696D01*
X166169289Y-75395711D01*
X166227304Y-75443322D01*
X166293492Y-75478701D01*
X166365311Y-75500487D01*
X166440000Y-75507843D01*
X166818459Y-75507843D01*
X166820053Y-75508000D01*
X168975056Y-75508000D01*
X169000000Y-75510457D01*
X169024944Y-75508000D01*
X169024947Y-75508000D01*
X169099585Y-75500649D01*
X169195343Y-75471601D01*
X169283595Y-75424429D01*
X169360948Y-75360948D01*
X169376855Y-75341565D01*
X169873000Y-74845420D01*
X169873000Y-79873000D01*
X165508000Y-79873000D01*
X165508000Y-76820053D01*
X165507843Y-76818459D01*
X165507843Y-76440000D01*
X165500487Y-76365311D01*
X165478701Y-76293492D01*
X165443322Y-76227304D01*
X165395711Y-76169289D01*
X165337696Y-76121678D01*
X165271508Y-76086299D01*
X165199689Y-76064513D01*
X165125000Y-76057157D01*
X164875000Y-76057157D01*
X164800311Y-76064513D01*
X164728492Y-76086299D01*
X164662304Y-76121678D01*
X164604289Y-76169289D01*
X164556678Y-76227304D01*
X164521299Y-76293492D01*
X164499513Y-76365311D01*
X164492157Y-76440000D01*
X164492157Y-76818469D01*
X164492001Y-76820053D01*
X164492001Y-79873000D01*
X161127000Y-79873000D01*
X161127000Y-75508000D01*
X163179947Y-75508000D01*
X163181541Y-75507843D01*
X163560000Y-75507843D01*
X163634689Y-75500487D01*
X163706508Y-75478701D01*
X163772696Y-75443322D01*
X163830711Y-75395711D01*
X163878322Y-75337696D01*
X163913701Y-75271508D01*
X163935487Y-75199689D01*
X163942843Y-75125000D01*
X163942843Y-74875000D01*
X163935487Y-74800311D01*
X163913701Y-74728492D01*
X163878322Y-74662304D01*
X163830711Y-74604289D01*
X163772696Y-74556678D01*
X163706508Y-74521299D01*
X163634689Y-74499513D01*
X163560000Y-74492157D01*
X163181541Y-74492157D01*
X163179947Y-74492000D01*
X161210420Y-74492000D01*
X161127000Y-74408580D01*
X161127000Y-69127000D01*
X162416155Y-69127000D01*
X162404657Y-69243750D01*
G37*
X162404657Y-69243750D02*
X162404657Y-69756250D01*
X162416216Y-69873615D01*
X162450451Y-69986470D01*
X162506044Y-70090477D01*
X162580860Y-70181640D01*
X162672023Y-70256456D01*
X162717001Y-70280497D01*
X162717000Y-70319503D01*
X162672023Y-70343544D01*
X162582994Y-70416608D01*
X162569942Y-70407887D01*
X162427809Y-70349013D01*
X162276922Y-70319000D01*
X162123078Y-70319000D01*
X161972191Y-70349013D01*
X161830058Y-70407887D01*
X161702141Y-70493358D01*
X161593358Y-70602141D01*
X161507887Y-70730058D01*
X161449013Y-70872191D01*
X161419000Y-71023078D01*
X161419000Y-71176922D01*
X161449013Y-71327809D01*
X161507887Y-71469942D01*
X161593358Y-71597859D01*
X161702141Y-71706642D01*
X161830058Y-71792113D01*
X161972191Y-71850987D01*
X162123078Y-71881000D01*
X162276922Y-71881000D01*
X162427809Y-71850987D01*
X162569942Y-71792113D01*
X162582994Y-71783392D01*
X162672023Y-71856456D01*
X162776030Y-71912049D01*
X162888885Y-71946284D01*
X163006250Y-71957843D01*
X163364423Y-71957843D01*
X163492001Y-72085421D01*
X163492000Y-73179946D01*
X163492157Y-73181540D01*
X163492157Y-73560000D01*
X163499513Y-73634689D01*
X163521299Y-73706508D01*
X163556678Y-73772696D01*
X163604289Y-73830711D01*
X163662304Y-73878322D01*
X163728492Y-73913701D01*
X163800311Y-73935487D01*
X163875000Y-73942843D01*
X164125000Y-73942843D01*
X164199689Y-73935487D01*
X164271508Y-73913701D01*
X164337696Y-73878322D01*
X164395711Y-73830711D01*
X164443322Y-73772696D01*
X164478701Y-73706508D01*
X164500487Y-73634689D01*
X164507843Y-73560000D01*
X164507843Y-73181541D01*
X164508000Y-73179947D01*
X164508000Y-71899944D01*
X164510457Y-71875000D01*
X164505343Y-71823078D01*
X164500649Y-71775415D01*
X164471601Y-71679657D01*
X164424429Y-71591405D01*
X164360948Y-71514052D01*
X164341565Y-71498145D01*
X164045343Y-71201923D01*
X164045343Y-70843750D01*
X164033784Y-70726385D01*
X163999549Y-70613530D01*
X163943956Y-70509523D01*
X163869140Y-70418360D01*
X163777977Y-70343544D01*
X163733000Y-70319503D01*
X163733000Y-70280497D01*
X163777977Y-70256456D01*
X163869140Y-70181640D01*
X163943956Y-70090477D01*
X163999549Y-69986470D01*
X164033784Y-69873615D01*
X164045343Y-69756250D01*
X164045343Y-69243750D01*
X164033845Y-69127000D01*
X165902157Y-69127000D01*
X165902157Y-69474752D01*
X165459780Y-69917129D01*
X165440474Y-69932973D01*
X165377241Y-70010021D01*
X165330255Y-70097925D01*
X165301322Y-70193307D01*
X165294000Y-70267646D01*
X165294000Y-70267654D01*
X165291553Y-70292500D01*
X165294000Y-70317346D01*
X165294000Y-70379756D01*
X165292001Y-70400053D01*
X165292000Y-71136404D01*
X165158430Y-71269974D01*
X165139053Y-71285876D01*
X165123151Y-71305253D01*
X165123150Y-71305254D01*
X165075571Y-71363229D01*
X165031112Y-71446408D01*
X165028400Y-71451481D01*
X165000891Y-71542168D01*
X164999352Y-71547240D01*
X164989543Y-71646824D01*
X164992001Y-71671778D01*
X164992000Y-73179946D01*
X164992157Y-73181540D01*
X164992157Y-73560000D01*
X164999513Y-73634689D01*
X165021299Y-73706508D01*
X165056678Y-73772696D01*
X165104289Y-73830711D01*
X165162304Y-73878322D01*
X165228492Y-73913701D01*
X165300311Y-73935487D01*
X165375000Y-73942843D01*
X165625000Y-73942843D01*
X165699689Y-73935487D01*
X165750000Y-73920225D01*
X165800311Y-73935487D01*
X165875000Y-73942843D01*
X166125000Y-73942843D01*
X166199689Y-73935487D01*
X166271508Y-73913701D01*
X166337696Y-73878322D01*
X166395711Y-73830711D01*
X166443322Y-73772696D01*
X166478701Y-73706508D01*
X166500487Y-73634689D01*
X166507843Y-73560000D01*
X166507843Y-73181541D01*
X166508000Y-73179947D01*
X166508000Y-71999311D01*
X166749468Y-71757843D01*
X166943750Y-71757843D01*
X167061115Y-71746284D01*
X167173970Y-71712049D01*
X167277977Y-71656456D01*
X167369140Y-71581640D01*
X167443956Y-71490477D01*
X167499549Y-71386470D01*
X167512500Y-71343777D01*
X167525451Y-71386470D01*
X167581044Y-71490477D01*
X167655860Y-71581640D01*
X167747023Y-71656456D01*
X167851030Y-71712049D01*
X167963885Y-71746284D01*
X168081250Y-71757843D01*
X168231976Y-71757843D01*
X168219000Y-71823078D01*
X168219000Y-71976922D01*
X168249013Y-72127809D01*
X168307887Y-72269942D01*
X168393358Y-72397859D01*
X168502141Y-72506642D01*
X168630058Y-72592113D01*
X168772191Y-72650987D01*
X168923078Y-72681000D01*
X169076922Y-72681000D01*
X169227809Y-72650987D01*
X169369942Y-72592113D01*
X169492001Y-72510556D01*
X169492001Y-73789579D01*
X168789580Y-74492000D01*
X166820053Y-74492000D01*
X166818459Y-74492157D01*
X166440000Y-74492157D01*
X166365311Y-74499513D01*
X166293492Y-74521299D01*
X166227304Y-74556678D01*
X166169289Y-74604289D01*
X166121678Y-74662304D01*
X166086299Y-74728492D01*
X166064513Y-74800311D01*
X166057157Y-74875000D01*
X166057157Y-75125000D01*
X166064513Y-75199689D01*
X166086299Y-75271508D01*
X166121678Y-75337696D01*
X166169289Y-75395711D01*
X166227304Y-75443322D01*
X166293492Y-75478701D01*
X166365311Y-75500487D01*
X166440000Y-75507843D01*
X166818459Y-75507843D01*
X166820053Y-75508000D01*
X168975056Y-75508000D01*
X169000000Y-75510457D01*
X169024944Y-75508000D01*
X169024947Y-75508000D01*
X169099585Y-75500649D01*
X169195343Y-75471601D01*
X169283595Y-75424429D01*
X169360948Y-75360948D01*
X169376855Y-75341565D01*
X169873000Y-74845420D01*
X169873000Y-79873000D01*
X165508000Y-79873000D01*
X165508000Y-76820053D01*
X165507843Y-76818459D01*
X165507843Y-76440000D01*
X165500487Y-76365311D01*
X165478701Y-76293492D01*
X165443322Y-76227304D01*
X165395711Y-76169289D01*
X165337696Y-76121678D01*
X165271508Y-76086299D01*
X165199689Y-76064513D01*
X165125000Y-76057157D01*
X164875000Y-76057157D01*
X164800311Y-76064513D01*
X164728492Y-76086299D01*
X164662304Y-76121678D01*
X164604289Y-76169289D01*
X164556678Y-76227304D01*
X164521299Y-76293492D01*
X164499513Y-76365311D01*
X164492157Y-76440000D01*
X164492157Y-76818469D01*
X164492001Y-76820053D01*
X164492001Y-79873000D01*
X161127000Y-79873000D01*
X161127000Y-75508000D01*
X163179947Y-75508000D01*
X163181541Y-75507843D01*
X163560000Y-75507843D01*
X163634689Y-75500487D01*
X163706508Y-75478701D01*
X163772696Y-75443322D01*
X163830711Y-75395711D01*
X163878322Y-75337696D01*
X163913701Y-75271508D01*
X163935487Y-75199689D01*
X163942843Y-75125000D01*
X163942843Y-74875000D01*
X163935487Y-74800311D01*
X163913701Y-74728492D01*
X163878322Y-74662304D01*
X163830711Y-74604289D01*
X163772696Y-74556678D01*
X163706508Y-74521299D01*
X163634689Y-74499513D01*
X163560000Y-74492157D01*
X163181541Y-74492157D01*
X163179947Y-74492000D01*
X161210420Y-74492000D01*
X161127000Y-74408580D01*
X161127000Y-69127000D01*
X162416155Y-69127000D01*
X162404657Y-69243750D01*
G36*
X169492001Y-71289444D02*
G01*
X169369942Y-71207887D01*
X169295453Y-71177033D01*
X169120343Y-71001922D01*
X169120343Y-70643750D01*
X169108784Y-70526385D01*
X169074549Y-70413530D01*
X169018956Y-70309523D01*
X168944140Y-70218360D01*
X168852977Y-70143544D01*
X168835742Y-70134332D01*
X168850477Y-70126456D01*
X168941640Y-70051640D01*
X169016456Y-69960477D01*
X169072049Y-69856470D01*
X169106284Y-69743615D01*
X169117843Y-69626250D01*
X169117843Y-69127000D01*
X169492001Y-69127000D01*
X169492001Y-71289444D01*
G37*
X169492001Y-71289444D02*
X169369942Y-71207887D01*
X169295453Y-71177033D01*
X169120343Y-71001922D01*
X169120343Y-70643750D01*
X169108784Y-70526385D01*
X169074549Y-70413530D01*
X169018956Y-70309523D01*
X168944140Y-70218360D01*
X168852977Y-70143544D01*
X168835742Y-70134332D01*
X168850477Y-70126456D01*
X168941640Y-70051640D01*
X169016456Y-69960477D01*
X169072049Y-69856470D01*
X169106284Y-69743615D01*
X169117843Y-69626250D01*
X169117843Y-69127000D01*
X169492001Y-69127000D01*
X169492001Y-71289444D01*
%TD*%
M02*
