M48
; DRILL file {KiCad (5.1.6-rc1-6-g4e217d402)-1} date 05/13/20 14:18:16
; FORMAT={-:-/ absolute / inch / decimal}
; #@! TF.CreationDate,2020-05-13T14:18:16-04:00
; #@! TF.GenerationSoftware,Kicad,Pcbnew,(5.1.6-rc1-6-g4e217d402)-1
FMAT,2
INCH
T1C0.0157
T2C0.0354
%
G90
G05
T1
X6.1811Y-2.5984
X6.1811Y-2.6378
X6.1811Y-2.6772
X6.1811Y-2.7165
X6.2205Y-2.5984
X6.2205Y-2.6378
X6.2205Y-2.6772
X6.2205Y-2.7165
X6.2992Y-3.189
X6.2992Y-3.2283
X6.2992Y-3.2677
X6.2992Y-3.3071
X6.2992Y-3.3465
X6.2992Y-3.3858
X6.3386Y-2.5984
X6.3386Y-3.189
X6.378Y-2.5984
X6.378Y-2.874
X6.378Y-2.9134
X6.378Y-3.189
X6.3858Y-2.7992
X6.4173Y-2.5984
X6.4173Y-3.189
X6.4567Y-2.5984
X6.4961Y-2.5984
X6.5354Y-2.5984
X6.5748Y-2.5984
X6.5748Y-3.189
X6.6063Y-2.689
X6.6142Y-2.5984
X6.6142Y-3.189
X6.6535Y-2.5984
X6.6535Y-2.8307
X6.6535Y-3.189
X6.6929Y-3.189
X6.6929Y-3.2283
X6.6929Y-3.2677
X6.6929Y-3.3071
X6.6929Y-3.3465
X6.6929Y-3.3858
X6.7323Y-2.5984
X6.7717Y-2.5984
X6.7717Y-2.6378
X6.7717Y-2.6772
X6.7717Y-2.7165
X6.811Y-2.5984
X6.811Y-2.6378
X6.811Y-2.6772
X6.811Y-2.7165
T2
X6.8425Y-2.8528
X6.8425Y-2.9528
X6.8425Y-3.0528
X6.8425Y-3.1528
X6.1496Y-2.8496
X6.1496Y-2.9496
X6.1496Y-3.0496
X6.1496Y-3.1496
T0
M30
