%TF.GenerationSoftware,KiCad,Pcbnew,(5.1.6-rc1-6-g4e217d402)-1*%
%TF.CreationDate,2020-05-13T14:18:14-04:00*%
%TF.ProjectId,RF_Switch,52465f53-7769-4746-9368-2e6b69636164,rev?*%
%TF.SameCoordinates,Original*%
%TF.FileFunction,Paste,Top*%
%TF.FilePolarity,Positive*%
%FSLAX46Y46*%
G04 Gerber Fmt 4.6, Leading zero omitted, Abs format (unit mm)*
G04 Created by KiCad (PCBNEW (5.1.6-rc1-6-g4e217d402)-1) date 2020-05-13 14:18:14*
%MOMM*%
%LPD*%
G01*
G04 APERTURE LIST*
%ADD10R,1.500000X5.080000*%
%ADD11R,1.520000X5.080000*%
%ADD12R,1.000000X4.560000*%
%ADD13R,1.000000X4.650000*%
%ADD14R,1.500000X1.500000*%
%ADD15C,1.500000*%
%ADD16R,2.060000X2.060000*%
%ADD17R,0.250000X0.810000*%
%ADD18R,0.810000X0.250000*%
G04 APERTURE END LIST*
%TO.C,C2*%
G36*
G01*
X164362500Y-69756250D02*
X164362500Y-69243750D01*
G75*
G02*
X164581250Y-69025000I218750J0D01*
G01*
X165018750Y-69025000D01*
G75*
G02*
X165237500Y-69243750I0J-218750D01*
G01*
X165237500Y-69756250D01*
G75*
G02*
X165018750Y-69975000I-218750J0D01*
G01*
X164581250Y-69975000D01*
G75*
G02*
X164362500Y-69756250I0J218750D01*
G01*
G37*
G36*
G01*
X162787500Y-69756250D02*
X162787500Y-69243750D01*
G75*
G02*
X163006250Y-69025000I218750J0D01*
G01*
X163443750Y-69025000D01*
G75*
G02*
X163662500Y-69243750I0J-218750D01*
G01*
X163662500Y-69756250D01*
G75*
G02*
X163443750Y-69975000I-218750J0D01*
G01*
X163006250Y-69975000D01*
G75*
G02*
X162787500Y-69756250I0J218750D01*
G01*
G37*
%TD*%
D10*
%TO.C,J3*%
X162460000Y-85000000D03*
X167540000Y-85000000D03*
D11*
X165000000Y-85000000D03*
%TD*%
D12*
%TO.C,J4*%
X172620000Y-62300000D03*
D13*
X167380000Y-62300000D03*
D12*
X170000000Y-62300000D03*
%TD*%
%TO.C,J1*%
X162620000Y-62300000D03*
D13*
X157380000Y-62300000D03*
D12*
X160000000Y-62300000D03*
%TD*%
%TO.C,R2*%
G36*
G01*
X167162500Y-70643750D02*
X167162500Y-71156250D01*
G75*
G02*
X166943750Y-71375000I-218750J0D01*
G01*
X166506250Y-71375000D01*
G75*
G02*
X166287500Y-71156250I0J218750D01*
G01*
X166287500Y-70643750D01*
G75*
G02*
X166506250Y-70425000I218750J0D01*
G01*
X166943750Y-70425000D01*
G75*
G02*
X167162500Y-70643750I0J-218750D01*
G01*
G37*
G36*
G01*
X168737500Y-70643750D02*
X168737500Y-71156250D01*
G75*
G02*
X168518750Y-71375000I-218750J0D01*
G01*
X168081250Y-71375000D01*
G75*
G02*
X167862500Y-71156250I0J218750D01*
G01*
X167862500Y-70643750D01*
G75*
G02*
X168081250Y-70425000I218750J0D01*
G01*
X168518750Y-70425000D01*
G75*
G02*
X168737500Y-70643750I0J-218750D01*
G01*
G37*
%TD*%
%TO.C,R1*%
G36*
G01*
X167160000Y-69113750D02*
X167160000Y-69626250D01*
G75*
G02*
X166941250Y-69845000I-218750J0D01*
G01*
X166503750Y-69845000D01*
G75*
G02*
X166285000Y-69626250I0J218750D01*
G01*
X166285000Y-69113750D01*
G75*
G02*
X166503750Y-68895000I218750J0D01*
G01*
X166941250Y-68895000D01*
G75*
G02*
X167160000Y-69113750I0J-218750D01*
G01*
G37*
G36*
G01*
X168735000Y-69113750D02*
X168735000Y-69626250D01*
G75*
G02*
X168516250Y-69845000I-218750J0D01*
G01*
X168078750Y-69845000D01*
G75*
G02*
X167860000Y-69626250I0J218750D01*
G01*
X167860000Y-69113750D01*
G75*
G02*
X168078750Y-68895000I218750J0D01*
G01*
X168516250Y-68895000D01*
G75*
G02*
X168735000Y-69113750I0J-218750D01*
G01*
G37*
%TD*%
D14*
%TO.C,J5*%
X173800000Y-80080000D03*
D15*
X173800000Y-77540000D03*
X173800000Y-75000000D03*
X173800000Y-72460000D03*
%TD*%
%TO.C,C1*%
G36*
G01*
X164362500Y-71356250D02*
X164362500Y-70843750D01*
G75*
G02*
X164581250Y-70625000I218750J0D01*
G01*
X165018750Y-70625000D01*
G75*
G02*
X165237500Y-70843750I0J-218750D01*
G01*
X165237500Y-71356250D01*
G75*
G02*
X165018750Y-71575000I-218750J0D01*
G01*
X164581250Y-71575000D01*
G75*
G02*
X164362500Y-71356250I0J218750D01*
G01*
G37*
G36*
G01*
X162787500Y-71356250D02*
X162787500Y-70843750D01*
G75*
G02*
X163006250Y-70625000I218750J0D01*
G01*
X163443750Y-70625000D01*
G75*
G02*
X163662500Y-70843750I0J-218750D01*
G01*
X163662500Y-71356250D01*
G75*
G02*
X163443750Y-71575000I-218750J0D01*
G01*
X163006250Y-71575000D01*
G75*
G02*
X162787500Y-71356250I0J218750D01*
G01*
G37*
%TD*%
D16*
%TO.C,U1*%
X165000000Y-75000000D03*
D17*
X164000000Y-76845000D03*
X164500000Y-76845000D03*
X165000000Y-76845000D03*
X165500000Y-76845000D03*
X166000000Y-76845000D03*
X166000000Y-73155000D03*
X165500000Y-73155000D03*
X165000000Y-73155000D03*
X164500000Y-73155000D03*
X164000000Y-73155000D03*
D18*
X166845000Y-76000000D03*
X166845000Y-75500000D03*
X166845000Y-75000000D03*
X166845000Y-74500000D03*
X166845000Y-74000000D03*
X163155000Y-76000000D03*
X163155000Y-75500000D03*
X163155000Y-75000000D03*
X163155000Y-74500000D03*
X163155000Y-74000000D03*
%TD*%
D14*
%TO.C,J2*%
X156200000Y-80000000D03*
D15*
X156200000Y-77460000D03*
X156200000Y-74920000D03*
X156200000Y-72380000D03*
%TD*%
M02*
