%TF.GenerationSoftware,KiCad,Pcbnew,(5.1.6-rc1-6-g4e217d402)-1*%
%TF.CreationDate,2020-05-13T14:18:14-04:00*%
%TF.ProjectId,RF_Switch,52465f53-7769-4746-9368-2e6b69636164,rev?*%
%TF.SameCoordinates,Original*%
%TF.FileFunction,Soldermask,Top*%
%TF.FilePolarity,Negative*%
%FSLAX46Y46*%
G04 Gerber Fmt 4.6, Leading zero omitted, Abs format (unit mm)*
G04 Created by KiCad (PCBNEW (5.1.6-rc1-6-g4e217d402)-1) date 2020-05-13 14:18:14*
%MOMM*%
%LPD*%
G01*
G04 APERTURE LIST*
%ADD10R,1.600000X5.180000*%
%ADD11R,1.620000X5.180000*%
%ADD12R,1.100000X4.660000*%
%ADD13R,1.100000X4.750000*%
%ADD14R,1.600000X1.600000*%
%ADD15C,1.600000*%
%ADD16R,2.160000X2.160000*%
%ADD17R,0.350000X0.910000*%
%ADD18R,0.910000X0.350000*%
G04 APERTURE END LIST*
%TO.C,C2*%
G36*
G01*
X164312500Y-69781250D02*
X164312500Y-69218750D01*
G75*
G02*
X164556250Y-68975000I243750J0D01*
G01*
X165043750Y-68975000D01*
G75*
G02*
X165287500Y-69218750I0J-243750D01*
G01*
X165287500Y-69781250D01*
G75*
G02*
X165043750Y-70025000I-243750J0D01*
G01*
X164556250Y-70025000D01*
G75*
G02*
X164312500Y-69781250I0J243750D01*
G01*
G37*
G36*
G01*
X162737500Y-69781250D02*
X162737500Y-69218750D01*
G75*
G02*
X162981250Y-68975000I243750J0D01*
G01*
X163468750Y-68975000D01*
G75*
G02*
X163712500Y-69218750I0J-243750D01*
G01*
X163712500Y-69781250D01*
G75*
G02*
X163468750Y-70025000I-243750J0D01*
G01*
X162981250Y-70025000D01*
G75*
G02*
X162737500Y-69781250I0J243750D01*
G01*
G37*
%TD*%
D10*
%TO.C,J3*%
X162460000Y-85000000D03*
X167540000Y-85000000D03*
D11*
X165000000Y-85000000D03*
%TD*%
D12*
%TO.C,J4*%
X172620000Y-62300000D03*
D13*
X167380000Y-62300000D03*
D12*
X170000000Y-62300000D03*
%TD*%
%TO.C,J1*%
X162620000Y-62300000D03*
D13*
X157380000Y-62300000D03*
D12*
X160000000Y-62300000D03*
%TD*%
%TO.C,R2*%
G36*
G01*
X167212500Y-70618750D02*
X167212500Y-71181250D01*
G75*
G02*
X166968750Y-71425000I-243750J0D01*
G01*
X166481250Y-71425000D01*
G75*
G02*
X166237500Y-71181250I0J243750D01*
G01*
X166237500Y-70618750D01*
G75*
G02*
X166481250Y-70375000I243750J0D01*
G01*
X166968750Y-70375000D01*
G75*
G02*
X167212500Y-70618750I0J-243750D01*
G01*
G37*
G36*
G01*
X168787500Y-70618750D02*
X168787500Y-71181250D01*
G75*
G02*
X168543750Y-71425000I-243750J0D01*
G01*
X168056250Y-71425000D01*
G75*
G02*
X167812500Y-71181250I0J243750D01*
G01*
X167812500Y-70618750D01*
G75*
G02*
X168056250Y-70375000I243750J0D01*
G01*
X168543750Y-70375000D01*
G75*
G02*
X168787500Y-70618750I0J-243750D01*
G01*
G37*
%TD*%
%TO.C,R1*%
G36*
G01*
X167210000Y-69088750D02*
X167210000Y-69651250D01*
G75*
G02*
X166966250Y-69895000I-243750J0D01*
G01*
X166478750Y-69895000D01*
G75*
G02*
X166235000Y-69651250I0J243750D01*
G01*
X166235000Y-69088750D01*
G75*
G02*
X166478750Y-68845000I243750J0D01*
G01*
X166966250Y-68845000D01*
G75*
G02*
X167210000Y-69088750I0J-243750D01*
G01*
G37*
G36*
G01*
X168785000Y-69088750D02*
X168785000Y-69651250D01*
G75*
G02*
X168541250Y-69895000I-243750J0D01*
G01*
X168053750Y-69895000D01*
G75*
G02*
X167810000Y-69651250I0J243750D01*
G01*
X167810000Y-69088750D01*
G75*
G02*
X168053750Y-68845000I243750J0D01*
G01*
X168541250Y-68845000D01*
G75*
G02*
X168785000Y-69088750I0J-243750D01*
G01*
G37*
%TD*%
D14*
%TO.C,J5*%
X173800000Y-80080000D03*
D15*
X173800000Y-77540000D03*
X173800000Y-75000000D03*
X173800000Y-72460000D03*
%TD*%
%TO.C,C1*%
G36*
G01*
X164312500Y-71381250D02*
X164312500Y-70818750D01*
G75*
G02*
X164556250Y-70575000I243750J0D01*
G01*
X165043750Y-70575000D01*
G75*
G02*
X165287500Y-70818750I0J-243750D01*
G01*
X165287500Y-71381250D01*
G75*
G02*
X165043750Y-71625000I-243750J0D01*
G01*
X164556250Y-71625000D01*
G75*
G02*
X164312500Y-71381250I0J243750D01*
G01*
G37*
G36*
G01*
X162737500Y-71381250D02*
X162737500Y-70818750D01*
G75*
G02*
X162981250Y-70575000I243750J0D01*
G01*
X163468750Y-70575000D01*
G75*
G02*
X163712500Y-70818750I0J-243750D01*
G01*
X163712500Y-71381250D01*
G75*
G02*
X163468750Y-71625000I-243750J0D01*
G01*
X162981250Y-71625000D01*
G75*
G02*
X162737500Y-71381250I0J243750D01*
G01*
G37*
%TD*%
D16*
%TO.C,U1*%
X165000000Y-75000000D03*
D17*
X164000000Y-76845000D03*
X164500000Y-76845000D03*
X165000000Y-76845000D03*
X165500000Y-76845000D03*
X166000000Y-76845000D03*
X166000000Y-73155000D03*
X165500000Y-73155000D03*
X165000000Y-73155000D03*
X164500000Y-73155000D03*
X164000000Y-73155000D03*
D18*
X166845000Y-76000000D03*
X166845000Y-75500000D03*
X166845000Y-75000000D03*
X166845000Y-74500000D03*
X166845000Y-74000000D03*
X163155000Y-76000000D03*
X163155000Y-75500000D03*
X163155000Y-75000000D03*
X163155000Y-74500000D03*
X163155000Y-74000000D03*
%TD*%
D14*
%TO.C,J2*%
X156200000Y-80000000D03*
D15*
X156200000Y-77460000D03*
X156200000Y-74920000D03*
X156200000Y-72380000D03*
%TD*%
M02*
